<?xml version="1.0" encoding="UTF-8"?>
<svg width="80px" height="31px" viewBox="0 0 80 31" version="1.1" xmlns="http://www.w3.org/2000/svg" xmlns:xlink="http://www.w3.org/1999/xlink">
    <!-- Generator: Sketch 47 (45396) - http://www.bohemiancoding.com/sketch -->
    <title>Page 1 Copy</title>
    <desc>Created with Sketch.</desc>
    <defs></defs>
    <g id="Page-1" stroke="none" stroke-width="1" fill="none" fill-rule="evenodd">
        <g id="Artboard" transform="translate(-760.000000, -3102.000000)" fill="#000000">
            <g id="Page-1-Copy" transform="translate(760.000000, 3102.000000)">
                <path d="M17.1316851,3.77297186 C17.2687895,3.49430066 17.4449339,3.10605028 17.6629066,2.6058591 C17.8790204,2.10802953 18.0454047,1.48692339 18.1597359,0.743485311 C14.9612525,-0.0221519986 12.7225,-0.196439579 11.4439432,0.221094895 C10.1644568,0.615957813 9.17079838,1.59130701 8.46296777,3.14667015 C7.86853878,4.39927357 7.35497816,6.10578042 6.92089163,8.26477372 L5.68741662,8.26477372 L4.21458983,9.83100032 L6.64714755,9.83100032 L3.59785233,27.3806733 C3.32364349,28.9601249 2.66042991,29.807002 1.61007064,29.9231937 L1.67885523,29.4711796 L1.91820701,27.5903852 L1.02819019,27.3466659 C0.89108577,27.6253371 0.714011927,28.0258679 0.496968661,28.547786 C0.278995873,29.0711211 0.113541049,29.7026184 0.000139428222,30.4465288 C0.274348266,30.6075913 0.559711361,30.7242553 0.856228714,30.7941593 C1.15321083,30.8631186 1.35863508,30.8862625 1.47343098,30.8631186 C1.61007064,30.8631186 1.94655741,30.8050227 2.48382083,30.6897757 C3.02061949,30.573584 3.59785233,30.2831047 4.21458983,29.8192824 C4.48833391,29.6105152 4.75045897,29.3781317 5.00235929,29.1226044 C5.25333009,28.8661325 5.48245714,28.5600665 5.68741662,28.2001555 C5.89284087,27.8402446 6.08199849,27.4104297 6.25349521,26.9121278 C6.42452716,26.4124089 6.5778982,25.7913028 6.71546738,25.0488094 L9.35391411,9.83100032 L13.5000447,9.83100032 L14.9728715,8.26477372 L9.62765819,8.26477372 L10.072899,5.79215724 C10.2100034,5.00337605 10.3591916,4.32464637 10.5186045,3.75549587 C10.6784822,3.18729002 10.8611332,2.72771871 11.0670222,2.3800882 C11.2496732,2.03198536 11.5345715,1.73064261 11.9235763,1.47511529 C12.3116515,1.21958797 13.0543391,1.15015633 14.1511745,1.2654034 C14.6991274,1.31263581 15.1610996,1.36506378 15.5380205,1.42221499 C15.9154063,1.48031085 16.2179655,1.55635503 16.4466278,1.64845822 L16.2407388,3.52925265 L17.1316851,3.77297186 Z" id="Fill-1"></path>
                <path d="M26.103287,8.1603901 C25.0747715,8.06734226 23.60148,8.56611647 21.6829476,9.65765739 L21.6829476,9.55232912 C21.6829476,9.08850689 21.5458432,8.68230819 21.2720991,8.33373303 C20.9978903,7.98704717 20.5298762,7.81275959 19.8666627,7.81275959 C19.318245,7.81275959 18.8051491,7.92800666 18.325516,8.1603901 C17.8449534,8.39182889 17.3090843,8.69458862 16.7151201,9.06630766 L16.9200796,9.51832179 C17.8570372,9.49517791 18.4277634,9.62365005 18.6336524,9.90137661 C18.8395414,10.1795755 18.8957775,10.575383 18.8051491,11.085493 L16.5436234,24.0035562 L19.2843174,24.0035562 L21.6146278,10.3543354 C22.0482496,10.1918559 22.4716466,10.0643284 22.8820303,9.97033592 C23.2933436,9.87917737 23.7153464,9.80880109 24.1494329,9.76204101 C24.5384376,9.71575325 24.8749244,9.69166472 25.161217,9.69166472 C25.4461154,9.69166472 25.6803548,9.70394515 25.8630057,9.7266167 L25.6575815,11.3632196 L26.5480631,11.6069388 C26.6851675,11.3292123 26.8622413,10.9409619 27.0792846,10.4417153 C27.2958631,9.94152415 27.4617827,9.32089033 27.5765786,8.5783969 C27.3246783,8.4390613 27.084397,8.34034557 26.8566642,8.28224971 C26.6280019,8.2250985 26.3774959,8.18447863 26.103287,8.1603901" id="Fill-3"></path>
                <path d="M32.6798374,22.1926657 C32.4739484,21.9139945 32.4172476,21.5200763 32.5083407,21.0090216 L34.3934103,9.55232912 C34.4835739,9.08850689 34.3985227,8.68892073 34.1363976,8.35215367 C33.8728783,8.01538661 33.4104413,7.84771157 32.7481573,7.84771157 C32.1997396,7.84771157 31.6736304,7.96295864 31.1721536,8.19439743 C30.6688177,8.42772552 30.1208648,8.7295406 29.5273653,9.10031499 L29.7332543,9.55232912 C30.6688177,9.53012989 31.2400087,9.65765739 31.4468272,9.93632859 C31.6513219,10.2149998 31.7084875,10.6098627 31.6178591,11.1209173 C31.1377613,13.8136368 30.7719946,15.914062 30.5210238,17.4221927 C30.2691235,18.9317404 30.0869373,20.0516208 29.9730709,20.7832507 C29.858275,21.5139361 29.795997,21.9730351 29.784378,22.1586584 C29.7722942,22.3438094 29.7671819,22.4713369 29.7671819,22.5412409 C29.7671819,23.0055355 29.869894,23.4112618 30.0753182,23.759837 C30.2812073,24.1079398 30.7143643,24.2822274 31.3771131,24.2822274 C31.9255308,24.2822274 32.4516399,24.1660357 32.9540463,23.9345969 C33.4564526,23.7017411 34.0044056,23.4003984 34.5983698,23.0286793 L34.3934103,22.5761929 C33.4564526,22.6002814 32.8852617,22.4713369 32.6798374,22.1926657" id="Fill-5"></path>
                <path d="M34.25612,1.71855111 C33.8215687,1.71855111 33.4279163,1.86969481 33.0737686,2.17150989 C32.7191562,2.47332497 32.4965358,2.845044 32.4059075,3.28477771 C32.3366581,3.72687303 32.4277512,4.09764743 32.6796515,4.3994625 C32.9301576,4.7017499 33.2740805,4.85242128 33.7077023,4.85242128 C34.1413241,4.85242128 34.5410183,4.7017499 34.906785,4.3994625 C35.2716222,4.09764743 35.4891302,3.72687303 35.5574501,3.28477771 C35.6490079,2.845044 35.5630272,2.47332497 35.3004374,2.17150989 C35.0383123,1.86969481 34.6897417,1.71855111 34.25612,1.71855111" id="Fill-7"></path>
                <path d="M47.7687132,7.89933659 C47.0836559,7.77180909 46.3521225,7.70851767 45.575972,7.70851767 C43.930719,7.70851767 42.5034388,8.04528473 41.292737,8.71740187 C39.8078265,9.53027159 38.9284991,10.7148603 38.6552198,12.2692788 C38.2202038,14.7768473 39.7051143,16.4824095 43.109022,17.3883271 C43.6792834,17.5276627 44.1649584,17.6788064 44.5651174,17.8403412 C44.9648116,18.0037653 45.2901442,18.1657725 45.541115,18.3282519 C46.3642062,18.8624505 46.6946511,19.6049439 46.535703,20.5562046 C46.4209071,21.2764988 45.8841084,21.9382248 44.925307,22.5413826 C44.4907557,22.7978546 44.039473,22.9825333 43.5714589,23.098725 C43.1029801,23.2158614 42.6061509,23.2720679 42.081436,23.2720679 C40.618834,23.2257802 39.4309055,22.947109 38.5176506,22.436999 L38.7918595,20.3124853 L37.9009131,20.0692384 C37.7638087,20.3474373 37.5862701,20.7371047 37.3696916,21.2358789 C37.1521836,21.7351254 36.9871935,22.3557592 36.8728624,23.098725 C37.0104316,23.1917728 37.1126789,23.2498687 37.1814635,23.2720679 L37.386423,23.3773962 C38.8480955,24.1198896 40.3218518,24.4916087 41.8062976,24.4916087 C43.4520154,24.4916087 44.9476155,24.0849376 46.2954217,23.2720679 C47.8249493,22.3439511 48.7275146,21.0790673 49.0017234,19.4769441 C49.2303857,18.1076766 48.9677959,17.0633681 48.2134892,16.3430739 C47.8249493,15.9954434 47.2769963,15.6586763 46.5696305,15.3337174 C45.8613351,15.0092307 44.9703888,14.7187514 43.8967915,14.4622795 C41.7728349,13.9058817 40.824723,12.9650122 41.0533852,11.6420325 C41.2351067,10.6907718 41.7040503,9.98323037 42.4578922,9.51846349 C43.1884961,9.05416893 43.9883493,8.81092204 44.8560576,8.78777816 C46.1806257,8.7414904 47.3462457,8.93892186 48.3505937,9.37912789 L48.042922,11.4686895 L48.9334036,11.7119364 C49.0709728,11.4332652 49.2475819,11.0440702 49.4646251,10.5462407 C49.6816684,10.0469941 49.8471232,9.42494332 49.9614544,8.68244989 L49.6872455,8.54311429 C49.0937461,8.24177154 48.4537705,8.02686409 47.7687132,7.89933659" id="Fill-9"></path>
                <path d="M59.7185949,7.96853207 C59.1018574,8.02662793 58.5078932,8.14943218 57.937167,8.33363857 C56.9783656,8.66048682 56.0985735,9.15312082 55.2987203,9.81437451 C54.498867,10.4761005 53.8249639,11.3291178 53.2774758,12.3734263 C52.7746047,13.3723917 52.3976837,14.4747961 52.1462482,15.681584 C51.9412887,16.8652282 51.8381118,17.8060977 51.8381118,18.501831 C51.8158033,20.3127215 52.2773107,21.763701 53.2258874,22.8552419 C54.1735345,23.9463105 55.5496911,24.4913725 57.3548218,24.4913725 C58.6793899,24.4913725 59.8217718,24.2821329 60.7805732,23.8641261 C61.7403041,23.4465917 62.5745497,22.5883788 63.2823803,21.2875984 L62.9393869,20.9739752 C62.5280736,21.4850298 62.0423986,21.9139001 61.4832914,22.2629476 C60.9232548,22.6105781 60.3413743,22.8495741 59.7353263,22.9766292 C59.1297431,23.1041567 58.5250893,23.1216327 57.9199708,23.0285849 C57.3148524,22.936954 56.7771242,22.7159063 56.3100396,22.3668589 C55.8415608,22.0192283 55.470217,21.5256497 55.1964729,20.8875399 C54.9217993,20.2499024 54.7963139,19.4545087 54.8190872,18.501831 C54.8190872,18.0847689 54.8650985,17.5505704 54.9561916,16.9001801 C55.0468199,16.2507345 55.1783472,15.5720049 55.3503087,14.8635188 C55.5218054,14.1559773 55.7211878,13.4649672 55.9498501,12.7914331 C56.1785123,12.117899 56.4294831,11.5615012 56.7041567,11.1208229 C56.9783656,10.6796722 57.2521097,10.3254292 57.5263185,10.0580937 C57.8000626,9.79123063 58.0965799,9.57632318 58.4168001,9.41337138 C58.7360907,9.25183655 59.0962803,9.14178504 59.4959745,9.08368918 C59.8956688,9.02559332 60.3697247,8.98402881 60.9176776,8.96135725 C61.1918865,8.96135725 61.4772496,8.97883324 61.7746964,9.01378522 C62.0712138,9.0487372 62.4597538,9.11250095 62.9393869,9.20554879 L62.665178,11.3994941 L63.5561244,11.6417963 C63.6932288,11.3631251 63.8698379,10.9758194 64.0873459,10.4761005 C64.3043891,9.97779864 64.469844,9.35622017 64.5841751,8.61230977 C63.7615486,8.24153538 62.8938403,8.02096004 61.9796559,7.95105608 C61.0891743,7.90571297 60.3357972,7.91138085 59.7185949,7.96853207" id="Fill-11"></path>
                <path d="M79.3846668,22.6456245 C78.4477092,22.6687684 77.876983,22.5412409 77.6720235,22.2625697 C77.4656697,21.9843708 77.4085042,21.5895079 77.500062,21.0793979 L78.9389613,12.4434247 C79.0760657,11.7240752 79.110458,11.0618768 79.0426029,10.4582467 C79.0189001,10.2967118 78.9965916,10.1502914 78.9733536,10.0237085 C78.9505803,9.89665336 78.916188,9.77384911 78.871571,9.65765739 C78.6647524,9.0082118 78.2594811,8.53872168 77.6548274,8.24824238 C77.0492441,7.95729075 76.3697639,7.81275959 75.615922,7.81275959 C75.227382,7.81275959 74.7932955,7.87085545 74.3145919,7.98704717 C73.8344941,8.10229424 73.3488191,8.24162984 72.8580317,8.40410932 C72.3658501,8.56611647 71.8922589,8.74701659 71.4353991,8.94444805 C70.9790041,9.14187951 70.5797746,9.32089033 70.2363164,9.48431446 L71.8811047,0.0468073148 L67.2218782,1.404739 L67.1182366,1.89264976 L68.8322742,2.86705431 L65.1313844,24.0035562 L67.7354388,24.0035562 L70.134069,10.1824094 C70.4082779,10.0662177 70.652742,9.97883775 70.8707148,9.92074189 C71.0868286,9.86264603 71.4014716,9.77479376 71.8123201,9.65860204 C72.2236333,9.54241032 72.6005543,9.46589382 72.9435477,9.43046951 C73.2860764,9.39646218 73.605367,9.37898619 73.9028139,9.37898619 C75.7753349,9.37898619 76.5524149,10.356697 76.2326595,12.3107017 L74.5534789,22.6078386 C74.5534789,23.0726055 74.6905833,23.4797488 74.9647922,23.828324 C75.2385363,24.1768991 75.7070151,24.3521314 76.3697639,24.3521314 C76.9177168,24.3521314 77.4428965,24.234995 77.9457676,24.0035562 C78.4477092,23.7721174 78.9965916,23.4703023 79.5900911,23.0985833 L79.3846668,22.6456245 Z" id="Fill-13"></path>
            </g>
        </g>
    </g>
</svg>