<svg version="1.1" xmlns="http://www.w3.org/2000/svg" xmlns:xlink="http://www.w3.org/1999/xlink" x="0px" y="0px" viewBox="0 0 75.092 28.661" enable-background="new 0 0 75.092 28.661" xml:space="preserve">
	<g>
		<g>
			<path fill="#8FACC5" d="M14.66,1.32c-0.355-0.054-0.792-0.102-1.309-0.146c-1.035-0.106-1.736-0.041-2.102,0.195
				c-0.367,0.237-0.636,0.517-0.808,0.84c-0.195,0.323-0.367,0.749-0.519,1.278c-0.15,0.527-0.291,1.157-0.42,1.891l-0.42,2.295
				h5.043l-1.389,1.454H8.826l-2.49,14.127c-0.13,0.689-0.275,1.266-0.436,1.73c-0.162,0.462-0.34,0.86-0.535,1.195
				c-0.193,0.334-0.408,0.619-0.645,0.856c-0.238,0.237-0.486,0.453-0.744,0.647c-0.582,0.43-1.126,0.7-1.633,0.808
				s-0.824,0.162-0.953,0.162c-0.109,0.02-0.303,0-0.582-0.065S0.258,28.415,0,28.265c0.107-0.69,0.264-1.276,0.47-1.762
				c0.203-0.485,0.371-0.857,0.5-1.115l0.84,0.226L1.584,27.36L1.52,27.779c0.991-0.107,1.617-0.895,1.875-2.36L6.272,9.127H3.977
				l1.389-1.454H6.53c0.409-2.005,0.894-3.589,1.454-4.752c0.668-1.443,1.605-2.35,2.813-2.716c1.207-0.388,3.319-0.227,6.336,0.484
				c-0.107,0.691-0.264,1.267-0.469,1.729c-0.205,0.464-0.371,0.825-0.5,1.084l-0.842-0.227l0.195-1.746
				C15.301,1.444,15.016,1.374,14.66,1.32z"/>
			<path fill="#8FACC5" d="M24.402,9.03c-0.174-0.021-0.395-0.032-0.664-0.032c-0.269,0-0.587,0.022-0.954,0.064
				c-0.409,0.043-0.808,0.109-1.195,0.193c-0.388,0.087-0.786,0.206-1.196,0.355l-2.198,12.673h-2.586l2.134-11.993
				c0.086-0.473,0.033-0.841-0.162-1.1c-0.193-0.258-0.732-0.377-1.615-0.355l-0.193-0.42c0.56-0.345,1.064-0.625,1.519-0.841
				c0.452-0.215,0.937-0.323,1.454-0.323c0.625,0,1.066,0.163,1.326,0.485c0.258,0.323,0.387,0.7,0.387,1.131v0.097
				c1.811-1.013,3.201-1.476,4.17-1.39c0.26,0.022,0.496,0.061,0.712,0.114s0.441,0.145,0.679,0.274
				c-0.107,0.689-0.264,1.266-0.469,1.729c-0.205,0.463-0.373,0.824-0.5,1.082l-0.842-0.227L24.402,9.03z"/>
			<path fill="#8FACC5" d="M30.671,19.504c-0.087,0.475-0.032,0.841,0.161,1.099c0.195,0.26,0.733,0.379,1.617,0.356l0.193,0.419
				c-0.56,0.346-1.077,0.627-1.551,0.841c-0.475,0.216-0.971,0.323-1.487,0.323c-0.626,0-1.034-0.161-1.229-0.483
				c-0.193-0.324-0.29-0.701-0.29-1.132c0-0.064,0.005-0.184,0.017-0.355c0.011-0.173,0.07-0.599,0.178-1.277
				s0.279-1.719,0.518-3.119c0.236-1.401,0.581-3.351,1.033-5.852c0.086-0.474,0.033-0.841-0.16-1.099
				c-0.195-0.26-0.734-0.378-1.617-0.356l-0.195-0.42c0.563-0.344,1.078-0.625,1.553-0.84c0.473-0.216,0.971-0.323,1.487-0.323
				c0.624,0,1.062,0.156,1.31,0.468c0.248,0.313,0.327,0.685,0.242,1.115L30.671,19.504z M32.32,1.595
				c0.409,0,0.737,0.142,0.984,0.421c0.248,0.28,0.33,0.625,0.243,1.034c-0.063,0.409-0.27,0.754-0.613,1.034
				c-0.345,0.281-0.723,0.421-1.132,0.421s-0.733-0.14-0.971-0.421c-0.237-0.28-0.322-0.625-0.258-1.034
				c0.086-0.409,0.296-0.754,0.631-1.034C31.538,1.736,31.91,1.595,32.32,1.595z"/>
			<path fill="#8FACC5" d="M45.617,8.707C44.67,8.298,43.57,8.115,42.32,8.158c-0.818,0.021-1.573,0.247-2.262,0.678
				c-0.711,0.433-1.154,1.089-1.325,1.973c-0.216,1.228,0.679,2.101,2.683,2.617c1.013,0.238,1.854,0.507,2.521,0.81
				c0.668,0.302,1.184,0.613,1.551,0.937c0.712,0.669,0.96,1.639,0.744,2.91c-0.26,1.487-1.111,2.661-2.554,3.523
				c-1.271,0.754-2.683,1.131-4.235,1.131c-1.4,0-2.791-0.345-4.17-1.033l-0.193-0.098c-0.065-0.021-0.161-0.075-0.291-0.162
				c0.107-0.689,0.264-1.266,0.469-1.729c0.204-0.463,0.371-0.824,0.501-1.083l0.841,0.227l-0.26,1.972
				c0.862,0.474,1.982,0.733,3.363,0.776c0.495,0,0.964-0.054,1.406-0.162c0.441-0.107,0.867-0.278,1.277-0.517
				c0.904-0.56,1.41-1.175,1.52-1.843c0.15-0.884-0.163-1.572-0.939-2.068c-0.236-0.151-0.543-0.302-0.92-0.454
				c-0.378-0.149-0.836-0.29-1.374-0.42c-3.212-0.84-4.613-2.423-4.202-4.752c0.258-1.442,1.088-2.543,2.488-3.297
				c1.143-0.624,2.488-0.938,4.042-0.938c0.731,0,1.422,0.06,2.067,0.178c0.646,0.118,1.25,0.317,1.811,0.599l0.26,0.129
				c-0.109,0.689-0.265,1.267-0.471,1.73c-0.203,0.462-0.371,0.823-0.5,1.082l-0.84-0.227L45.617,8.707z"/>
			<path fill="#8FACC5" d="M57.475,8.319c-0.516,0.021-0.963,0.061-1.341,0.113c-0.377,0.054-0.718,0.156-1.019,0.306
				c-0.302,0.152-0.582,0.352-0.841,0.599c-0.258,0.248-0.517,0.578-0.775,0.986c-0.259,0.41-0.495,0.927-0.712,1.551
				c-0.215,0.627-0.403,1.268-0.564,1.924c-0.162,0.658-0.286,1.288-0.373,1.892c-0.086,0.604-0.129,1.1-0.129,1.486
				c-0.021,0.885,0.097,1.624,0.355,2.215c0.259,0.593,0.609,1.051,1.052,1.374c0.44,0.323,0.947,0.529,1.519,0.613
				c0.57,0.088,1.142,0.071,1.713-0.047s1.121-0.34,1.648-0.663c0.528-0.323,0.986-0.722,1.374-1.196l0.323,0.291
				c-0.667,1.207-1.455,2.004-2.359,2.393c-0.904,0.387-1.983,0.581-3.232,0.581c-1.703,0-3.002-0.506-3.895-1.519
				c-0.896-1.013-1.332-2.36-1.311-4.042c0-0.646,0.098-1.519,0.291-2.617c0.236-1.12,0.592-2.145,1.066-3.071
				c0.518-0.97,1.152-1.762,1.908-2.377c0.755-0.614,1.584-1.07,2.489-1.373c0.538-0.172,1.098-0.286,1.681-0.34
				c0.582-0.054,1.293-0.059,2.133-0.017c0.863,0.065,1.682,0.27,2.457,0.614c-0.108,0.69-0.264,1.268-0.469,1.73
				c-0.205,0.464-0.371,0.823-0.502,1.083l-0.84-0.227l0.259-2.037c-0.451-0.086-0.818-0.146-1.099-0.178
				C58.004,8.336,57.732,8.319,57.475,8.319z"/>
			<path fill="#8FACC5" d="M71.924,11.43c0.303-1.815-0.431-2.723-2.197-2.723c-0.281,0-0.582,0.017-0.906,0.048
				c-0.322,0.032-0.679,0.104-1.066,0.211c-0.389,0.108-0.685,0.189-0.889,0.243c-0.205,0.054-0.437,0.136-0.695,0.244l-2.262,12.831
				h-2.457l3.491-19.623l-1.617-0.904l0.098-0.453l4.396-1.261l-1.552,8.762c0.322-0.151,0.699-0.318,1.131-0.501
				c0.432-0.184,0.877-0.352,1.342-0.502c0.463-0.151,0.921-0.28,1.375-0.387c0.451-0.109,0.86-0.163,1.228-0.163
				c0.71,0,1.353,0.136,1.923,0.405c0.57,0.269,0.953,0.705,1.148,1.308c0.041,0.109,0.074,0.223,0.096,0.341
				s0.043,0.253,0.065,0.403c0.064,0.561,0.032,1.175-0.097,1.843l-1.359,8.018c-0.086,0.474-0.031,0.84,0.163,1.099
				c0.193,0.259,0.731,0.377,1.615,0.355l0.194,0.42c-0.561,0.346-1.078,0.626-1.551,0.841c-0.475,0.215-0.971,0.323-1.488,0.323
				c-0.625,0-1.066-0.163-1.325-0.487c-0.258-0.323-0.388-0.7-0.388-1.132L71.924,11.43z"/>
		</g>
	</g>
</svg>
