<?xml version="1.0" encoding="utf-8"?>
<!-- Generator: Adobe Illustrator 20.1.0, SVG Export Plug-In . SVG Version: 6.00 Build 0)  -->
<svg version="1.1" id="Layer_1" xmlns="http://www.w3.org/2000/svg" xmlns:xlink="http://www.w3.org/1999/xlink" x="0px" y="0px"
	 viewBox="0 0 31.9 32" style="enable-background:new 0 0 31.9 32;" xml:space="preserve">
<style type="text/css">
	.st0{fill:#FFFFFF;}
	.st1{fill:#9CBDD9;}
</style>
<ellipse class="st0" cx="16.7" cy="16.8" rx="12.4" ry="10.6"/>
<g>
	<g id="XMLID_1_">
		<g>
			<polygon class="st0" points="26.2,10.7 17.5,20 13.4,15.6 5.5,20 14.2,10.7 18.4,15 			"/>
			<path class="st1" d="M15.9,0c8.8,0,15.9,6.6,15.9,14.8c0,8.2-7.1,14.8-15.9,14.8c-1.6,0-3.1-0.2-4.6-0.6l-5.4,3v-5.7
				C2.3,23.7,0,19.5,0,14.8C0,6.6,7.1,0,15.9,0z M17.5,20l8.7-9.3L18.4,15l-4.2-4.4L5.5,20l7.9-4.3L17.5,20z"/>
		</g>
		<g>
		</g>
	</g>
</g>
</svg>
