<?xml version="1.0" encoding="iso-8859-1"?>
<!-- Generator: Adobe Illustrator 20.0.0, SVG Export Plug-In . SVG Version: 6.00 Build 0)  -->
<svg version="1.1" id="Layer_1" xmlns="http://www.w3.org/2000/svg" xmlns:xlink="http://www.w3.org/1999/xlink" x="0px" y="0px"
	 viewBox="0 0 74.412 80.295" style="enable-background:new 0 0 74.412 80.295;" xml:space="preserve">
<g>
	<g>
		<path style="fill:#A7A8AD;" d="M36.59,68.378c-6.893-0.008-13.219-2.507-18.13-6.638l-7.672,9.145
			c6.985,5.87,15.988,9.414,25.806,9.411c9.805-0.004,18.795-3.546,25.772-9.41l-7.674-9.145
			C49.789,65.866,43.473,68.364,36.59,68.378z"/>
		<path style="fill:#A7A8AD;" d="M36.568,11.915c6.891,0.012,13.215,2.512,18.125,6.643l7.672-9.143
			C55.392,3.551,46.407,0.009,36.61,0h-0.09C26.73,0.016,17.756,3.558,10.788,9.414l7.672,9.144
			C23.366,14.431,29.683,11.931,36.568,11.915z"/>
	</g>
	<g>
		<path style="fill:#A7A8AD;" d="M34.805,47.88V32.198h4.228v11.913h7.808l-0.584,3.769H34.805z"/>
		<path style="fill:#A7A8AD;" d="M54.735,35.967V47.88h-4.229V35.967h-4.464v-3.769h13.492l-0.759,3.769H54.735z"/>
		<path style="fill:#A7A8AD;" d="M27.361,47.887h4.422l-6.258-15.702h-3.261l-6.258,15.702h4.42l0.715-1.975h5.547L27.361,47.887z
			 M25.505,42.536h-3.127l1.625-4.396L25.505,42.536z"/>
		<path style="fill:#A7A8AD;" d="M69.99,47.887h4.422l-6.258-15.702h-3.261l-6.258,15.702h4.42l0.715-1.975h5.545L69.99,47.887z
			 M68.134,42.536h-3.127l1.624-4.396L68.134,42.536z"/>
		<path style="fill:#A7A8AD;" d="M12.209,39.842c-0.003,0.015-0.204-0.153-0.204-0.153c0.522-0.37,1.548-1.245,1.548-2.964
			c0-2.719-1.747-4.554-5.018-4.554H0l0.677,3.452l0.004-0.003v12.29h8.565c2.807,0,4.908-1.636,4.908-4.643
			C14.155,41.057,12.677,40.183,12.209,39.842z M9.363,37.123c0,0.577-0.309,1.195-1.297,1.195H4.869v-2.391h3.197
			C9.054,35.927,9.363,36.546,9.363,37.123z M8.631,44.13H4.869v-2.576h3.762c0.989,0,1.318,0.659,1.318,1.278
			C9.95,43.45,9.62,44.13,8.631,44.13z"/>
	</g>
</g>
</svg>
