<?xml version="1.0" encoding="iso-8859-1"?>
<!-- Generator: Adobe Illustrator 20.0.0, SVG Export Plug-In . SVG Version: 6.00 Build 0)  -->
<svg version="1.1" id="Layer_1" xmlns="http://www.w3.org/2000/svg" xmlns:xlink="http://www.w3.org/1999/xlink" x="0px" y="0px"
	 viewBox="0 0 99.036 64.577" style="enable-background:new 0 0 99.036 64.577;" xml:space="preserve">
<g>
	<path style="fill-rule:evenodd;clip-rule:evenodd;fill:#A7A7AC;" d="M2.655,5.709c-2.104,2.447-2.886,4.633-2.597,7.027
		c0.208,1.72,0.645,2.928,0.829,3.195c1.681,2.443,0.935,0.106,0.924-2.258c-0.02-4.104,2.952-8.829,7.606-10.77
		c3.703-1.544,8.165-2.104,12.27-1.337c3.883,0.725,7.559,2.412,9.745,5.314c1.747,2.318,3.147,5,3.287,9.92
		c0.006,0.209,0.02,0.478,0.009,0.98c-0.047,2.202-0.397,6.007-2.941,9.823c-2.972,4.458-9.224,7.482-16.46,7.482
		c-2.544,0-5.269-0.351-7.198-0.435c-0.377-0.016-0.465-0.323-0.198-0.494c4.908-3.149,6.157-9.963,8.743-15.831
		c0.734-1.783,1.901-5.548,2.469-6.734c3.442-7.183,6.188-7.58,5.312-7.686c-1.504-0.181-3.951,0.056-6.733,2.673
		c-1.626,1.52-3.508,5.294-4.714,8.23c-2.097,5.138-3.597,9.992-5.013,12.719C6.894,29.73,6.03,31.637,4.928,32.84
		c-1.442,1.574-2.013,1.787-2.013,1.787c-0.053,0-0.367,0-0.577,0.21c-0.105,0.105-0.209,0.262-0.209,0.525
		c0,0.314,0.104,0.523,0.209,0.629c0.21,0.158,0.42,0.158,0.524,0.158c0.053,0,11.585,0.366,14.367,0.105
		c8.442-0.793,13.525-2.997,17.51-6.982c3.723-3.617,4.606-8.174,4.606-11.32c0-4.562-1.101-8.363-4.247-11.509
		C31.48,2.824,27.805,0.796,22.09,0.167c-3.04-0.296-6.824-0.241-10.428,0.52C7.5,1.566,4.319,3.773,2.655,5.709z"/>
	<path style="fill-rule:evenodd;clip-rule:evenodd;fill:#A7A7AC;" d="M54.206,12.721l0.056,0.001
		c-6.649,0-12.371,5.11-14.056,11.514c-0.895,3.441-0.934,7.073,0.883,9.329c1.487,1.881,3.394,2.639,5.899,2.639
		c6.954,0,12.489-5.247,14.174-11.65c0.894-3.493,0.816-7.017-1.001-9.327C58.675,13.401,56.766,12.758,54.206,12.721L54.206,12.721
		z M45.704,34.673L45.704,34.673c-0.71-0.33-1.571-2.02-1.683-3.479c-0.208-2.706-0.205-6.243,1.721-9.988
		c2.676-5.274,7.08-8.657,10.175-6.809c0.63,0.376,0.97,0.952,1.272,1.871c1.048,3.18,0.187,8.642-2.095,12.682
		C52.138,34.183,48.22,35.983,45.704,34.673L45.704,34.673z"/>
	<path style="fill-rule:evenodd;clip-rule:evenodd;fill:#A7A7AC;" d="M93.599,12.608c-4.178,0.149-10.266,3.009-13.516,11.189
		c-1.73,4.352-1.183,7.741-0.186,9.418c1.416,2.307,3.123,2.916,4.864,3.008c8.156,0.434,11.714-6.132,11.871-6.394
		c0.158-0.262,0.339-0.654-0.079-0.916c-0.472-0.262-0.659,0.217-0.817,0.478c-1.812,2.988-5.875,5.259-8.825,5.199
		c-2.045-0.052-3.161-1.338-3.629-4.135c-0.235-1.403,0.14-4.301,0.403-4.929c1.73,0.105,10.179-0.82,14.017-5.347
		c1.242-1.465,1.727-3.792,0.983-5.29C97.94,13.39,95.417,12.577,93.599,12.608L93.599,12.608z M91.831,14.012
		c0.996-0.367,2.112-0.277,2.869,0.159c1.414,0.817,1.53,3.258-0.513,5.876c-2.726,3.408-8.67,4.548-10.085,4.443
		C86.304,18.512,89.733,14.693,91.831,14.012L91.831,14.012z"/>
	<path style="fill-rule:evenodd;clip-rule:evenodd;fill:#A7A7AC;" d="M35.553,51.542c0,0,5.012,0.414,10.438-2.428
		c5.426-2.842,9.146-4.909,11.781-1.86c2.635,3.048-0.93,5.683-0.465,6.045c0.465,0.362,1.085-0.258,1.447-0.568
		c0.362-0.31,2.505-2.977,4.289-3.617c2.739-0.982,3.668,0.207,4.34,0.62c0.672,0.414,1.24,0.775,1.24,0.93
		c0,0.156-1.143,0.395-1.964,1.137c-1.602,1.447-4.753,9.663-10.489,11.833c-5.735,2.17-12.762,1.137-25.99-8.836
		c10.592,2.428,11.161,1.705,12.918,1.705c1.757,0,6.304-0.414,5.89-1.24C48.574,54.435,42.735,57.122,35.553,51.542z"/>
	<path style="fill-rule:evenodd;clip-rule:evenodd;fill:#A7A7AC;" d="M62.585,13.362c-0.629,0.372,1.708,1.139,1.957,5.409
		c0.143,2.455,0.249,5.089,0.142,7.117c-0.106,2.029-0.64,8.043-0.534,8.719c0.107,0.676,0.427,1.602,1.317,1.53
		c0.89-0.072,6.512-2.954,11.067-10.641c4.555-7.687,5.596-12.705,3.523-12.705c-1.673,0-0.996,0.996-1.282,2.491
		c-0.49,2.57-1.522,6.307-3.523,9.359c-2.099,3.203-5.551,7.936-6.512,7.651c-0.961-0.285,1.175-12.74-0.605-16.334
		C66.494,12.642,63.368,12.899,62.585,13.362z"/>
</g>
</svg>
