<?xml version="1.0" encoding="iso-8859-1"?>
<!-- Generator: Adobe Illustrator 20.0.0, SVG Export Plug-In . SVG Version: 6.00 Build 0)  -->
<svg version="1.1" id="Layer_1" xmlns="http://www.w3.org/2000/svg" xmlns:xlink="http://www.w3.org/1999/xlink" x="0px" y="0px"
	 viewBox="0 0 111.131 44.638" style="enable-background:new 0 0 111.131 44.638;" xml:space="preserve">
<g>
	<g>
		<g>
			<g>
				<rect x="93.175" style="fill:#A7A8AD;" width="5.98" height="5.986"/>
				<rect x="99.155" y="5.986" style="fill:#A7A8AD;" width="5.988" height="5.988"/>
				<rect x="105.142" y="11.973" style="fill:#A7A8AD;" width="5.989" height="5.981"/>
				<rect x="99.155" y="17.954" style="fill:#A7A8AD;" width="5.988" height="5.986"/>
				<rect x="93.175" y="23.94" style="fill:#A7A8AD;" width="5.98" height="5.985"/>
			</g>
		</g>
		<path style="fill:#A7A8AD;" d="M21.58,0.023v9.04h-7.8C6.181,9.062,0,15.243,0,22.844c0,7.599,6.181,13.78,13.781,13.78
			c7.6,0,13.779-6.181,13.779-13.78V0.023H21.58z M13.781,30.642c-4.301,0-7.8-3.5-7.8-7.797c0-4.301,3.499-7.8,7.8-7.8h7.8v7.8
			C21.58,27.142,18.081,30.642,13.781,30.642z"/>
		<path style="fill:#A7A8AD;" d="M44.059,8.336c-7.599,0-13.781,6.184-13.781,13.784v22.519h5.981v-8.74h7.8
			c7.598,0,13.78-6.182,13.78-13.779C57.838,14.519,51.657,8.336,44.059,8.336z M44.059,29.916h-7.8v-7.796
			c0-4.302,3.499-7.8,7.8-7.8c4.3,0,7.8,3.497,7.8,7.8C51.858,26.417,48.359,29.916,44.059,29.916z"/>
		<g>
			<path style="fill:#A7A8AD;" d="M73.43,8.336c-7.598,0-13.78,6.184-13.78,13.784c0,7.597,6.182,13.779,13.78,13.779h13.781V22.119
				C87.211,14.519,81.029,8.336,73.43,8.336z M81.231,29.916H73.43c-4.299,0-7.797-3.499-7.797-7.796c0-4.302,3.499-7.8,7.797-7.8
				c4.302,0,7.801,3.497,7.801,7.8V29.916z"/>
		</g>
	</g>
</g>
</svg>
