<?xml version="1.0" encoding="iso-8859-1"?>
<!-- Generator: Adobe Illustrator 20.0.0, SVG Export Plug-In . SVG Version: 6.00 Build 0)  -->
<svg version="1.1" id="Layer_1" xmlns="http://www.w3.org/2000/svg" xmlns:xlink="http://www.w3.org/1999/xlink" x="0px" y="0px"
	 viewBox="0 0 128.664 17.776" style="enable-background:new 0 0 128.664 17.776;" xml:space="preserve">
<g>
	<path style="fill-rule:evenodd;clip-rule:evenodd;fill:#A7A8AD;" d="M127.409,13.203c-1.02-3.172-3.06-4.131-3.06-4.131
		c2.04-0.59,3.295-2.434,3.295-4.131c0-2.434-1.647-4.5-5.414-4.5h-11.14v16.891h2.746V9.958h6.904c2.275,0,3.138,1.476,4.079,4.279
		c0.942,3.098,0.942,3.098,0.942,3.098h2.903C127.409,13.203,128.664,17.334,127.409,13.203L127.409,13.203z M121.525,7.818h-7.688
		V2.582h7.767c2.197,0,3.295,1.033,3.295,2.582C124.898,6.343,124.192,7.818,121.525,7.818L121.525,7.818z"/>
	<polygon style="fill-rule:evenodd;clip-rule:evenodd;fill:#A7A8AD;" points="82.612,17.334 85.358,17.334 85.358,0.442 
		82.612,0.442 82.612,17.334 	"/>
	<polygon style="fill-rule:evenodd;clip-rule:evenodd;fill:#A7A8AD;" points="76.414,14.752 65.587,0.442 61.586,0.442 
		61.586,17.334 64.332,17.334 64.332,3.024 75.08,17.334 79.16,17.334 79.16,0.442 76.414,0.442 76.414,14.752 	"/>
	<path style="fill-rule:evenodd;clip-rule:evenodd;fill:#A7A8AD;" d="M98.224,0c-7.532,0-10.356,4.573-10.356,8.851
		c0,4.352,2.824,8.925,10.356,8.925c4.942,0,7.845-1.991,9.258-4.647h-3.138c-1.334,1.622-3.609,2.434-6.119,2.434
		c-4.236,0-7.61-2.212-7.61-6.712c0-4.426,3.373-6.638,7.61-6.638c3.844,0,6.982,1.844,7.532,5.605H93.752l0.314,2.139h14.435
		c0-0.368,0.079-0.737,0.079-1.106C108.58,4.573,105.677,0,98.224,0L98.224,0z"/>
	<path style="fill-rule:evenodd;clip-rule:evenodd;fill:#A7A8AD;" d="M20.634,7.818H5.884l0.314,2.139h11.611
		c-0.47,3.762-3.609,5.606-7.453,5.606c-4.315,0-7.61-2.212-7.61-6.712c0-4.426,3.295-6.638,7.61-6.638
		c2.51,0,4.707,0.737,6.119,2.36h3.138C18.202,1.992,15.299,0,10.356,0C2.825,0,0,4.573,0,8.851c0,4.352,2.825,8.925,10.356,8.925
		c7.453,0,10.277-4.573,10.277-8.925C20.634,8.482,20.634,8.187,20.634,7.818L20.634,7.818z"/>
	<path style="fill-rule:evenodd;clip-rule:evenodd;fill:#A7A8AD;" d="M28.322,0.442l-8.395,16.891h2.982l3.452-7.376h7.374
		l3.609,7.376h2.903L31.852,0.442H28.322L28.322,0.442z M27.38,7.818l2.668-5.605l2.667,5.605H27.38L27.38,7.818z"/>
	<path style="fill-rule:evenodd;clip-rule:evenodd;fill:#A7A8AD;" d="M55.075,9.073c1.961-0.59,3.295-2.434,3.295-4.131
		c0-2.434-1.726-4.5-5.413-4.5H41.737v16.891h2.746V9.958h6.904c2.353,0,3.216,1.476,4.079,4.279c1.02,3.098,1.02,3.098,1.02,3.098
		h2.903c-1.334-4.13,0,0-1.334-4.13C57.036,10.031,55.075,9.073,55.075,9.073L55.075,9.073z M52.172,7.818h-7.689V2.582h7.767
		c2.275,0,3.374,1.033,3.374,2.582C55.624,6.343,54.918,7.818,52.172,7.818L52.172,7.818z"/>
</g>
</svg>
