<?xml version="1.0" encoding="UTF-8"?>
<svg width="158px" height="46px" viewBox="0 0 158 46" version="1.1" xmlns="http://www.w3.org/2000/svg" xmlns:xlink="http://www.w3.org/1999/xlink">
    <!-- Generator: Sketch 47 (45396) - http://www.bohemiancoding.com/sketch -->
    <title>Page 1</title>
    <desc>Created with Sketch.</desc>
    <defs>
        <polygon id="path-1" points="20.7162479 20.8626761 0 20.8626761 0 0.146622887 20.7162479 0.146622887"></polygon>
        <polygon id="path-3" points="20.8763342 20.8626761 0.160253169 20.8626761 0.160253169 0.146650704 20.8763342 0.146650704"></polygon>
        <polygon id="path-5" points="0.0423651408 20.8626761 20.7584461 20.8626761 20.7584461 0.146650704 0.0423651408 0.146650704 0.0423651408 20.8626761"></polygon>
        <polygon id="path-7" points="0.272855986 20.8626761 20.988937 20.8626761 20.988937 0.146650704 0.272855986 0.146650704 0.272855986 20.8626761"></polygon>
        <polygon id="path-9" points="20.7909085 0.146539437 20.7909085 20.8626204 0.0749109155 20.8626204 0.0749109155 0.146539437"></polygon>
        <polygon id="path-11" points="0.18972406 0.0731584507 34.2230928 0.0731584507 34.2230928 7.33902383 0.18972406 7.33902383"></polygon>
    </defs>
    <g id="Page-1" stroke="none" stroke-width="1" fill="none" fill-rule="evenodd">
        <g id="Artboard" transform="translate(-1189.000000, -2294.000000)">
            <g id="Page-1" transform="translate(1189.000000, 2294.000000)">
                <g id="Group-3" transform="translate(0.000000, 24.683884)">
                    <mask id="mask-2" fill="white">
                        <use xlink:href="#path-1"></use>
                    </mask>
                    <g id="Clip-2"></g>
                    <path d="M15.0894451,14.5966687 C15.0894451,14.5966687 15.0894451,15.1082215 14.8338077,15.1082215 L13.5547866,15.1082215 C13.5547866,15.1082215 13.1711915,15.1082215 13.043512,14.7246264 L13.043512,9.73733415 L13.043512,9.22578134 L11.2532162,11.5276299 C11.2532162,11.5276299 10.7416634,12.1671405 10.6137056,12.1671405 C10.3580683,12.1671405 10.2301106,12.1671405 9.97447324,11.911225 C9.71855775,11.6555877 7.92826197,9.09782359 7.92826197,9.09782359 L7.92826197,14.4687109 C7.92826197,14.4687109 7.92826197,15.1082215 7.5446669,15.1082215 L6.26592394,15.1082215 C6.26592394,15.1082215 5.88232887,15.1082215 5.88232887,14.5966687 L5.88232887,6.28470035 C5.88232887,6.28470035 5.88232887,5.77314754 6.39388169,5.77314754 L7.67262465,5.77314754 C7.67262465,5.77314754 8.18417746,5.64518979 8.69573028,6.54033768 C9.2072831,7.43548556 10.4860261,9.22578134 10.4860261,9.22578134 L12.7878746,6.15674261 C12.7878746,6.15674261 13.043512,5.77314754 13.5547866,5.77314754 L14.70585,5.77314754 C14.70585,5.90110528 15.0894451,5.90110528 15.0894451,6.4126581 L15.0894451,14.5966687 Z M10.3580683,0.146622887 C4.60358592,0.146622887 -0.000111267606,4.75032007 -0.000111267606,10.5045243 C-0.000111267606,16.2590067 4.60358592,20.8627039 10.3580683,20.8627039 C16.1125507,20.8627039 20.7162479,16.2590067 20.7162479,10.5045243 C20.7162479,4.75032007 16.1125507,0.146622887 10.3580683,0.146622887 L10.3580683,0.146622887 Z" id="Fill-1" fill="#767676" mask="url(#mask-2)"></path>
                </g>
                <path d="M34.7825317,32.8867542 C34.3989366,32.3752014 34.1432993,32.2472437 33.375831,32.2472437 C33.375831,32.2472437 32.6086408,32.2472437 32.2250458,32.3752014 C31.8414507,32.6311169 31.3298979,33.0144338 31.2019401,34.2934549 C31.0739824,35.5721979 31.2019401,37.2345359 31.9691303,37.7460887 C32.7365986,38.2576415 33.375831,38.1296838 33.375831,38.1296838 C33.375831,38.1296838 34.5268944,38.1296838 34.9104894,37.2345359 C35.2940845,36.339388 35.1661268,35.0606451 35.1661268,35.0606451 C35.1661268,35.0606451 35.1661268,33.398307 34.7825317,32.8867542" id="Fill-4" fill="#767676"></path>
                <path d="M36.3170789,39.0248039 C36.0614415,39.5363567 34.6547408,39.9199518 34.6547408,39.9199518 C34.6547408,39.9199518 31.9692972,40.5594623 30.4349169,39.1524835 C28.7723007,37.7460609 29.027938,35.4442123 29.027938,34.6770222 C29.027938,33.909832 29.1558958,32.1195363 30.5625965,31.2243884 C32.0972549,30.3292405 33.5036775,30.5848778 33.5036775,30.5848778 C34.9103782,30.5848778 35.1662937,30.7128356 36.1893993,31.352068 C37.2122268,31.9915785 37.4678641,33.6539165 37.4678641,35.8278074 C37.4678641,37.8740187 36.5727162,38.5132511 36.3170789,39.0248039 M33.2480401,24.8303954 C27.4935577,24.8303954 22.8898606,29.4340926 22.8898606,35.1882968 C22.8898606,40.9430574 27.4935577,45.5464764 33.2480401,45.5464764 C39.0025225,45.5464764 43.6062197,40.9430574 43.6062197,35.1882968 C43.6062197,29.4340926 39.0025225,24.8303954 33.2480401,24.8303954" id="Fill-6" fill="#767676"></path>
                <g id="Group-10" transform="translate(45.619718, 24.683884)">
                    <mask id="mask-4" fill="white">
                        <use xlink:href="#path-3"></use>
                    </mask>
                    <g id="Clip-9"></g>
                    <path d="M13.9710665,14.4687387 C13.331556,15.3638866 11.5415384,15.236207 11.5415384,15.236207 L8.60017923,15.236207 C8.60017923,15.236207 8.34426373,15.236207 7.96094683,15.1082493 C7.70503134,14.9802915 7.70503134,14.4687387 7.70503134,14.4687387 L7.70503134,6.54036549 C7.70503134,5.77317535 8.34426373,5.9011331 8.34426373,5.9011331 L10.0068799,5.9011331 C10.0068799,5.9011331 10.5184327,5.9011331 12.3084504,6.02881268 C13.9710665,6.28472817 14.3546616,7.30755563 14.3546616,8.20298169 C14.4826194,8.97017183 14.0987461,9.86531972 13.331556,10.3768725 C14.0987461,10.6325099 14.6102989,11.5276577 14.6102989,12.2948479 C14.6102989,13.062038 14.4826194,13.5735908 13.9710665,14.4687387 M10.5184327,0.146650704 C4.76367218,0.146650704 0.160253169,4.75006972 0.160253169,10.5045521 C0.160253169,16.2590345 4.76367218,20.8627317 10.5184327,20.8627317 C16.272637,20.8627317 20.8763342,16.2590345 20.8763342,10.5045521 C20.8763342,4.75006972 16.272637,0.146650704 10.5184327,0.146650704" id="Fill-8" fill="#767676" mask="url(#mask-4)"></path>
                </g>
                <path d="M57.5447127,36.2114581 C57.2890754,36.0837785 56.521607,36.0837785 56.521607,36.0837785 L55.3708218,36.0837785 L55.3708218,38.1297116 L57.1611176,38.1297116 C57.1611176,38.1297116 57.9283077,38.0017539 58.0562655,37.3625215 C58.0562655,36.7230109 57.9283077,36.3394158 57.5447127,36.2114581" id="Fill-11" fill="#767676"></path>
                <path d="M57.6726704,33.6540278 C57.80035,33.0145173 57.5447127,32.6309222 57.2890754,32.5029644 C57.0331599,32.3752849 56.2659697,32.3752849 56.2659697,32.3752849 L55.3708218,32.3752849 L55.2428641,32.3752849 L55.2428641,34.421218 L56.7775225,34.421218 C56.7775225,34.421218 57.5447127,34.2932602 57.6726704,33.6540278" id="Fill-13" fill="#767676"></path>
                <path d="M80.0511451,39.6641197 C80.0511451,39.9200352 79.5395923,39.9200352 79.5395923,39.9200352 L78.3885289,39.9200352 C78.005212,39.9200352 78.005212,39.4084824 78.005212,39.4084824 L78.005212,31.2241937 C78.005212,30.7126408 78.5164866,30.5849613 78.5164866,30.5849613 L79.66755,30.5849613 C80.0511451,30.5849613 80.0511451,31.2241937 80.0511451,31.2241937 L80.0511451,39.6641197 Z M79.0280394,24.8304789 C73.273557,24.8304789 68.6698599,29.4341761 68.6698599,35.1883803 C68.6698599,40.9428627 73.273557,45.5465599 79.0280394,45.5465599 C84.7825218,45.5465599 89.386219,40.9428627 89.386219,35.1883803 C89.386219,29.4341761 84.7825218,24.8304789 79.0280394,24.8304789 L79.0280394,24.8304789 Z" id="Fill-15" fill="#767676"></path>
                <g id="Group-19" transform="translate(91.517606, 24.683884)">
                    <mask id="mask-6" fill="white">
                        <use xlink:href="#path-5"></use>
                    </mask>
                    <g id="Clip-18"></g>
                    <path d="M13.8531785,14.4687387 C13.8531785,14.9802915 13.3416257,15.1082493 13.3416257,15.1082493 L13.0859884,15.1082493 L10.7841398,15.1082493 C9.63335458,15.1082493 9.24948134,14.9802915 8.61024894,14.3410592 C7.97101655,13.7015486 8.09869613,12.4228056 8.09869613,12.4228056 L8.09869613,6.54036549 C8.09869613,5.9011331 8.73792852,5.9011331 8.73792852,5.9011331 L9.37743908,5.9011331 L10.0166715,5.9011331 C10.4005447,5.9011331 10.4005447,6.41268592 10.4005447,6.41268592 L10.4005447,11.5276577 C10.4005447,11.5276577 10.272587,12.5504852 10.4005447,12.9343585 C10.4005447,13.3179535 11.2956926,13.3179535 11.2956926,13.3179535 L13.4695835,13.3179535 C13.8531785,13.3179535 13.8531785,13.7015486 13.8531785,13.7015486 L13.8531785,14.4687387 Z M10.4005447,0.146650704 C4.64606232,0.146650704 0.0423651408,4.75006972 0.0423651408,10.5045521 C0.0423651408,16.2590345 4.64606232,20.8627317 10.4005447,20.8627317 C16.1547489,20.8627317 20.7584461,16.2590345 20.7584461,10.5045521 C20.7584461,4.75006972 16.1547489,0.146650704 10.4005447,0.146650704 L10.4005447,0.146650704 Z" id="Fill-17" fill="#767676" mask="url(#mask-6)"></path>
                </g>
                <g id="Group-22" transform="translate(114.049296, 24.683884)">
                    <mask id="mask-8" fill="white">
                        <use xlink:href="#path-7"></use>
                    </mask>
                    <g id="Clip-21"></g>
                    <path d="M13.9557116,14.4687387 C13.9557116,14.9802915 13.4441588,15.1082493 13.4441588,15.1082493 L13.1885215,15.1082493 L10.8866729,15.1082493 C9.73588768,15.1082493 9.35229261,14.9802915 8.71278204,14.3410592 C8.07327148,13.7015486 8.20122923,12.4228056 8.20122923,12.4228056 L8.20122923,6.54036549 C8.20122923,5.9011331 8.84073979,5.9011331 8.84073979,5.9011331 L9.47997218,5.9011331 L10.1192046,5.9011331 C10.5030778,5.9011331 10.5030778,6.41268592 10.5030778,6.41268592 L10.5030778,11.5276577 C10.5030778,11.5276577 10.3751201,12.5504852 10.5030778,12.9343585 C10.5030778,13.3179535 11.3982257,13.3179535 11.3982257,13.3179535 L13.5721165,13.3179535 C13.9557116,13.3179535 13.9557116,13.7015486 13.9557116,13.7015486 L13.9557116,14.4687387 Z M10.6307574,0.146650704 C5.00423275,0.146650704 0.272855986,4.75006972 0.272855986,10.5045521 C0.272855986,16.2590345 4.87655317,20.8627317 10.6307574,20.8627317 C16.3852398,20.8627317 20.988937,16.2590345 20.988937,10.5045521 C20.988937,4.75006972 16.3852398,0.146650704 10.6307574,0.146650704 L10.6307574,0.146650704 Z" id="Fill-20" fill="#767676" mask="url(#mask-8)"></path>
                </g>
                <g id="Group-25" transform="translate(137.137324, 24.683884)">
                    <mask id="mask-10" fill="white">
                        <use xlink:href="#path-9"></use>
                    </mask>
                    <g id="Clip-24"></g>
                    <path d="M14.5249567,6.2846169 L11.5838757,11.5275465 L11.5838757,11.783462 L11.5838757,14.724543 C11.5838757,14.9801803 11.2000025,15.108138 11.2000025,15.108138 L10.8164074,15.108138 L9.66562218,15.108138 C9.40970669,14.9801803 9.40970669,14.5965852 9.40970669,14.5965852 L9.40970669,13.9573528 L9.40970669,11.6555042 L9.28202711,11.3998669 C9.28202711,11.3998669 6.98017852,7.17976479 6.85222077,6.92412746 C6.85222077,6.66821197 6.4686257,6.41257465 6.59658345,6.15693732 C6.7245412,5.90102183 7.10813627,5.90102183 7.10813627,5.90102183 L8.25892148,5.90102183 C8.7704743,6.02897958 8.7704743,6.41257465 8.7704743,6.2846169 L10.5607701,9.73752887 C10.5607701,9.73752887 12.3510658,6.2846169 12.6067032,6.02897958 C12.8623405,5.64538451 13.3738933,5.77334225 13.6298088,5.77334225 C13.8854461,5.77334225 14.3969989,5.77334225 14.5249567,5.90102183 C14.6529144,6.02897958 14.5249567,6.2846169 14.5249567,6.2846169 M10.4328123,0.146539437 C4.80628768,0.146539437 0.0749109155,4.75023662 0.0749109155,10.5044408 C0.0749109155,16.2589232 4.6786081,20.8626204 10.4328123,20.8626204 C16.1872947,20.8626204 20.7909919,16.2589232 20.7909919,10.5044408 C20.7909919,4.75023662 16.1872947,0.146539437 10.4328123,0.146539437" id="Fill-23" fill="#767676" mask="url(#mask-10)"></path>
                </g>
                <g id="Group-28" transform="translate(16.133803, 0.205011)">
                    <mask id="mask-12" fill="white">
                        <use xlink:href="#path-11"></use>
                    </mask>
                    <g id="Clip-27"></g>
                    <path d="M2.79201021,6.97839824 C7.26774965,4.67654965 12.1270842,3.52576444 17.1143764,3.52576444 C22.2293482,3.52576444 27.2166405,4.80450739 31.6923799,7.10607782 C32.4595701,7.61763063 33.4826757,7.23403556 33.9939504,6.46684542 C34.5055032,5.57169754 34.1219081,4.54887007 33.2267602,4.03731725 C28.239468,1.47955317 22.6129433,0.0731306338 16.9864187,0.0731306338 C11.3596158,0.0731306338 6.11696444,1.35187359 1.12967218,3.90935951 C0.234524296,4.29295458 -0.0213911972,5.44373979 0.362482042,6.2112081 C0.746077113,7.10607782 1.89686232,7.36199331 2.79201021,6.97839824" id="Fill-26" fill="#767676" mask="url(#mask-12)"></path>
                </g>
                <path d="M45.0127257,11.7869113 C41.3041764,9.86865775 37.3399898,8.97378803 33.1201658,8.97378803 C29.0280215,8.97378803 25.1917926,9.86865775 21.4835215,11.6592317 C20.5880954,12.0425486 20.2045004,13.193612 20.7160532,13.9608021 C21.0996482,14.85595 22.2507116,15.2398232 23.0179018,14.7282704 C26.2148982,13.193612 29.5395743,12.4264218 33.1201658,12.4264218 C36.7007574,12.4264218 40.1533912,13.193612 43.4780673,14.85595 C44.3734933,15.2398232 45.3963208,14.9839077 45.7799158,14.0887599 C46.1637891,13.193612 45.9078736,12.1705063 45.0127257,11.7869113" id="Fill-29" fill="#767676"></path>
                <path d="M27.3656835,22.4008116 C29.1559792,21.6336215 31.2021905,21.1220687 33.1201658,21.1220687 C35.1660989,21.1220687 37.2123102,21.5056637 39.0023278,22.4008116 C39.8977539,22.7844067 40.9205813,22.4008116 41.3041764,21.5056637 C41.6880496,20.6105158 41.3041764,19.5874102 40.4093067,19.2038151 C38.1074581,18.1809877 35.549694,17.5414771 32.9922081,17.5414771 C30.6906377,17.6694349 28.2608313,18.3086673 25.9589827,19.2038151 C25.0638349,19.5874102 24.6802398,20.6105158 25.0638349,21.5056637 C25.4474299,22.4008116 26.4705356,22.7844067 27.3656835,22.4008116" id="Fill-31" fill="#767676"></path>
            </g>
        </g>
    </g>
</svg>