<?xml version="1.0" encoding="iso-8859-1"?>
<svg version="1.1" id="Layer_1" xmlns="http://www.w3.org/2000/svg" xmlns:xlink="http://www.w3.org/1999/xlink" x="0px" y="0px"
	 viewBox="0 0 151 32.166" style="enable-background:new 0 0 151 32.166;" xml:space="preserve">
<g>
	<g>
		<path style="fill:#A8AAAF;" d="M21.85,23.924c0,4.853,4.164,8.242,10.124,8.242c5.96,0,10.123-3.389,10.123-8.242
			c0-4.853-4.163-8.243-10.123-8.243C26.014,15.681,21.85,19.07,21.85,23.924L21.85,23.924z M26.003,23.924
			c0-2.865,2.399-4.79,5.971-4.79c3.571,0,5.971,1.925,5.971,4.79c0,2.863-2.4,4.788-5.971,4.788
			C28.402,28.713,26.003,26.788,26.003,23.924L26.003,23.924z"/>
		<path style="fill:#A8AAAF;" d="M47.842,17.32c0-0.341,0-1.233,0-1.233h-3.996v15.66h4.033v-8.337c0-1.426,0.161-2.877,2.087-3.582
			c0.638-0.234,1.277-0.338,2.073-0.336l0.578,0.001v-3.817C52.616,15.677,50.013,15.677,47.842,17.32L47.842,17.32z"/>
		<path style="fill:#A8AAAF;" d="M69.047,10.329c0,0,0,6.293,0,6.976c-1.577-1.044-3.775-1.644-6.119-1.644
			c-5.961,0-10.124,3.389-10.124,8.242c0,4.853,4.163,8.242,10.124,8.242c2.338,0,4.436-0.529,6.121-1.502c0,0.354,0,1.098,0,1.098
			h4.001v-7.883c0,0.003,0-0.033,0-0.033V10.329H69.047L69.047,10.329z M56.958,23.924c0-2.865,2.4-4.79,5.971-4.79
			c3.571,0,5.971,1.925,5.971,4.79c0,2.863-2.399,4.788-5.971,4.788C59.357,28.713,56.958,26.788,56.958,23.924L56.958,23.924z"/>
		<path style="fill:#A8AAAF;" d="M96.542,23.916c0,4.931,4.038,8.243,10.047,8.243c2.442,0,4.664-0.43,6.193-1.495
			c0,0.42,0.002,1.093,0.002,1.093h4.003v-7.757c0-4.98-4.068-8.326-10.122-8.326C100.704,15.673,96.542,19.063,96.542,23.916
			L96.542,23.916z M100.693,23.916c0-2.864,2.4-4.788,5.972-4.788c3.571,0,5.97,1.924,5.97,4.788c0,2.864-2.399,4.788-5.97,4.788
			C103.093,28.704,100.693,26.779,100.693,23.916L100.693,23.916z"/>
		<path style="fill:#A8AAAF;" d="M95.085,25.481c-0.509,2.523-2.218,4.278-4.138,5.33c-1.744,0.955-3.653,1.352-5.922,1.349
			c-6.208-0.008-10.092-3.775-10.091-8.151c0-4.928,4.277-8.373,10.091-8.334c7.725,0.051,10.046,4.842,10.217,7.844
			c0,0.006-14.845,3.221-15.059,3.267c1.05,1.226,2.718,1.889,4.842,1.919c2.523,0.035,4.381-0.959,5.247-2.183L95.085,25.481
			L95.085,25.481z M79.175,23.512c0.5-0.108,10.414-2.257,10.955-2.374c-0.87-1.144-2.634-2.028-5.104-2.046
			C81.626,19.185,79.342,20.987,79.175,23.512L79.175,23.512z"/>
		<path style="fill:#A8AAAF;" d="M16.274,31.745l3.876,0.037V12.473h-4.012v13.194L3.974,12.464H0
			c0,0.651,0.005,19.329,0.005,19.329h4.011L4.013,18.874L16.274,31.745L16.274,31.745z"/>
		<path style="fill:#A8AAAF;" d="M124.361,10.864c-0.989-3.596-2.594-6.63-4.546-8.725c13.181-3.017,22.519-2.573,23.821,1.059
			c2.235,6.234-9.927,17.87-20.735,21.342C125.127,21.688,125.936,16.592,124.361,10.864L124.361,10.864z M144.815,8.451
			c1.294-2.666,1.584-5.048,0.871-7.074c-0.182-0.516-0.441-0.966-0.757-1.378c3.649,0.519,6.894,5.945,5.883,12.086
			c-0.776,4.711-2.584,8.829-4.567,11.275c-2.537-1.255-7.877-1.558-13.861-0.591c-1.355,0.219-2.433,0.437-3.662,0.748
			C135.563,19.917,142.191,13.859,144.815,8.451L144.815,8.451z"/>
		<path style="fill:#A8AAAF;" d="M124.361,10.864c1.575,5.727,0.766,10.824-1.461,13.675c10.808-3.471,22.97-15.107,20.735-21.342
			c-1.302-3.632-10.639-4.076-23.821-1.059C121.767,4.235,123.372,7.268,124.361,10.864L124.361,10.864z"/>
		<path style="fill:#A8AAAF;" d="M144.815,8.451c1.294-2.666,1.584-5.048,0.871-7.074c-0.182-0.516-0.441-0.966-0.757-1.378
			c3.649,0.519,6.894,5.945,5.883,12.086c-0.776,4.711-2.584,8.829-4.567,11.275c-2.537-1.255-7.877-1.558-13.861-0.591
			c-1.355,0.219-2.433,0.437-3.662,0.748C135.563,19.917,142.191,13.859,144.815,8.451L144.815,8.451z"/>
	</g>
</g>
</svg>
