<?xml version="1.0" encoding="iso-8859-1"?>
<!-- Generator: Adobe Illustrator 20.0.0, SVG Export Plug-In . SVG Version: 6.00 Build 0)  -->
<svg version="1.1" id="Layer_1" xmlns="http://www.w3.org/2000/svg" xmlns:xlink="http://www.w3.org/1999/xlink" x="0px" y="0px"
	 viewBox="0 0 90.753 61.632" style="enable-background:new 0 0 90.753 61.632;" xml:space="preserve">
<g>
	<path style="fill:#A7A8AD;" d="M49.686,61.632l1.371-12.769l2.369-0.461l6.049,11.35l-2.46,0.478l-1.22-2.294l-3.356,0.652
		l-0.266,2.555L49.686,61.632z M53.049,52.816l-0.359,3.517l2.031-0.392L53.049,52.816z"/>
	<path style="fill:#A7A8AD;" d="M17.17,54.37l8.446-9.674l2.206,0.981l-1.555,12.767l-2.288-1.02l0.317-2.578l-3.124-1.391
		l-1.682,1.939L17.17,54.37z M24.983,49.076l-2.311,2.675l1.888,0.844L24.983,49.076z"/>
	<polygon style="fill:#A7A8AD;" points="32.641,47.502 35.073,48.109 32.634,57.888 37.291,58.698 35.884,61.005 29.662,59.453 	"/>
	<polygon style="fill:#A7A8AD;" points="57.395,47.138 64.686,51.036 66.372,42.952 71.712,54.403 69.514,55.427 67.203,50.469 
		66.348,54.603 62.658,52.619 64.958,57.552 62.735,58.59 	"/>
	<path style="fill:#A7A8AD;" d="M74.192,48.692c3.829,0.606,3.436-1.792,2.503-2.008c-0.533-0.522-5.734,0.216-6.914-1.348
		c-0.554-0.552-2.29-3.391,0.873-5.478c1.849-1.38,4.23-0.443,4.23-0.443l-0.431,2.266c-3.726-0.678-3.204,1.795-2.512,1.931
		c1.595,0.668,5.813-0.529,7.649,1.985c2.53,5.065-4.284,6.35-5.491,5.639L74.192,48.692z"/>
	<polygon style="fill:#A7A8AD;" points="42.023,59.074 46.735,58.801 45.813,61.418 38.313,61.288 43.84,51.314 39.302,51.576 
		40.145,49.071 47.783,49.205 	"/>
	<path style="fill:#A7A8AD;" d="M16.052,38.304l3.078,2.492c0.578,0.468,0.949,0.99,1.052,1.222
		c1.661,3.145-2.133,5.515-3.208,4.644c1.923,3.689-2.935,5.94-5.15,4.147l-3.562-2.885L16.052,38.304z M14.86,48.439
		c0.55-0.579,0.536-1.417-0.177-1.994l-1.135-0.922l-1.676,2.07l1.091,0.92C13.71,49.119,14.435,48.837,14.86,48.439 M17.675,44.5
		c0.438-0.594,0.477-1.218-0.123-1.703l-1.085-0.879l-1.569,1.938l1.059,0.859C16.608,45.241,17.325,44.975,17.675,44.5"/>
	<path style="fill:#A7A8AD;" d="M24.765,13.048l-2.946-8.805l5.828-1.95c2.846-0.952,3.202,0.107,3.471,0.916l0.317,0.946
		c0.376,1.121-0.186,1.53-1.54,2.177c0.73-0.132,2.265-0.384,2.661,0.8l0.601,1.793c0.151,0.448,0.371,0.886,1.068,0.959
		l-3.205,1.072c-0.448-0.224-0.664-0.567-0.75-0.829l-0.63-1.88c-0.2-0.599-0.342-1.022-1.866-0.511l-1.39,0.465l1.296,3.873
		L24.765,13.048z M25.159,4.54l0.805,2.403l1.524-0.509c1.322-0.443,1.211-0.849,1.062-1.297L28.27,4.302
		c-0.242-0.722-0.936-0.49-1.586-0.272L25.159,4.54z"/>
	
		<rect x="36.466" y="0.285" transform="matrix(0.9936 -0.1132 0.1132 0.9936 -0.3129 4.3339)" style="fill:#A7A8AD;" width="3.05" height="9.271"/>
	<path style="fill:#A7A8AD;" d="M53.108,3.68l-3.059-0.294l0.086-0.876c0.043-0.458,0.092-0.967-1.343-1.105
		c-1.553-0.15-1.619,0.543-1.668,1.04l-0.467,4.863c-0.06,0.615,0.287,0.964,1.369,1.068c1.531,0.147,1.591-0.48,1.633-0.924
		l0.139-1.438L47.89,5.83l0.134-1.386l4.964,0.479l-0.481,5.006l-2.612-0.251l0.053-0.549c-0.473,0.232-1.248,0.632-3.013,0.462
		c-1.482-0.143-3.566-0.699-3.419-2.229l0.506-5.254c0.09-0.928,0.38-2.47,4.968-2.028c0.752,0.073,2.181,0.277,3.135,0.724
		c0.909,0.431,1.167,0.957,1.112,1.532L53.108,3.68z"/>
	<path style="fill:#A7A8AD;" d="M54.729,10.237l6.41-7.439l3.276,1.291l-0.494,9.77l-2.903-1.144l0.179-1.552l-2.639-1.041
		l-0.972,1.241L54.729,10.237z M61.927,5.634L59.435,8.93l1.979,0.779L61.927,5.634z"/>
	<path style="fill:#A7A8AD;" d="M10.752,22.565c0,0.888-0.354,1.768-1.071,2.295c-0.748,0.542-1.689,0.574-2.613,0.574H3.637
		c0.583-0.502,0.621-1.068,0.621-1.739v-0.406v-5.615c0-0.79-0.01-1.568-0.629-2.141H7.25c1.544,0,3.14,0.702,3.14,2.441
		c0,1.173-0.645,1.709-1.688,2.095l-0.23,0.086l0.24,0.051C9.878,20.457,10.752,21.338,10.752,22.565 M6.374,19.65
		c0.994,0,2.199-0.098,2.199-1.437c0-1.274-1.06-1.421-2.003-1.421c-0.148,0-0.19,0.004-0.23,0.007
		c-0.037,0.003-0.069,0.007-0.193,0.007L6.075,19.65H6.374z M6.42,24.175c1.139,0,2.318-0.119,2.318-1.7
		c0-1.415-1.133-1.565-2.138-1.565c-0.155,0-0.202,0.004-0.244,0.008c-0.04,0.004-0.077,0.008-0.208,0.008l-0.072,3.25H6.42z"/>
	<path style="fill:#A7A8AD;" d="M21.359,23.062h-2.62c-0.193,0.606-0.449,1.225-0.509,1.867c0,0.254,0.182,0.401,0.389,0.51h-2.247
		h-0.507h-4.514c0.57-0.413,0.606-0.873,0.606-1.455v-0.327v-4.516c0-0.69-0.012-1.332-0.606-1.78h2.79
		c-0.607,0.448-0.607,1.09-0.607,1.78v5.122h0.679c0.898,0,1.772-0.072,2.378-0.836l-0.158,1.454c0.151-0.225,0.257-0.48,0.379-0.8
		l1.952-5.293c0.11-0.302,0.218-0.641,0.218-0.955c0-0.194-0.085-0.34-0.218-0.472h2.778c-0.133,0.132-0.254,0.278-0.254,0.472
		c0,0.326,0.145,0.653,0.254,0.955l1.771,5.123c0.219,0.594,0.425,1.115,0.922,1.528h-2.741c0.207-0.158,0.351-0.316,0.351-0.583
		C21.844,24.299,21.528,23.596,21.359,23.062 M21.007,21.885l-0.933-3.097l-0.971,3.097H21.007z"/>
	<path style="fill:#A7A8AD;" d="M29.308,17.131v2.365c-0.339-0.667-0.776-1.006-1.565-1.006c-1.516,0-1.916,1.686-1.916,2.899
		c0,1.333,0.4,2.922,2,2.922c0.752,0,1.298-0.435,1.638-1.091l-0.157,2.499c-0.147-0.121-0.279-0.207-0.474-0.207
		c-0.423,0-0.836,0.098-1.261,0.098c-2.401,0-3.481-2.039-3.481-4.197c0-2.172,1.067-4.221,3.493-4.221
		c0.424,0,0.849,0.097,1.273,0.097C29.029,17.288,29.174,17.215,29.308,17.131"/>
	<path style="fill:#A7A8AD;" d="M34.01,20.873l1.893,2.688c0.546,0.762,1.285,1.429,2.11,1.878h-2.692l-2.804-4.021v2.241
		c0,0.69,0,1.332,0.607,1.781h-2.79c0.571-0.412,0.607-0.872,0.607-1.454v-0.327v-4.518c0-0.69-0.012-1.332-0.607-1.78h2.79
		c-0.607,0.448-0.607,1.09-0.607,1.78v1.587l2.099-2.483c0.133-0.157,0.315-0.363,0.315-0.593c0-0.109-0.049-0.206-0.109-0.29h2.838
		c-0.606,0.29-1.104,0.727-1.552,1.223L34.01,20.873z"/>
	<path style="fill:#A7A8AD;" d="M46.443,21.121c0.959,0.207,1.688,0.934,1.688,1.952c0,0.728-0.291,1.456-0.886,1.893
		c-0.618,0.448-1.395,0.473-2.135,0.473h-3.251c0.57-0.413,0.606-0.873,0.606-1.455v-0.328V19.14c0-0.688-0.012-1.331-0.606-1.779
		h3.396c1.25,0,2.585,0.57,2.585,2.02C47.84,20.359,47.293,20.806,46.443,21.121 M44.043,24.31h0.546
		c0.923,0,1.806-0.096,1.806-1.309c0-1.08-0.848-1.201-1.661-1.201c-0.243,0-0.473,0.012-0.691,0.012V24.31z M44.043,20.672h0.509
		c0.812,0,1.71-0.085,1.71-1.098c0-0.965-0.788-1.085-1.552-1.085c-0.231,0-0.462,0.012-0.667,0.012V20.672z"/>
	<path style="fill:#A7A8AD;" d="M65.811,17.179l0.132,2.498c-0.436-0.655-1.054-1.2-1.892-1.2c-0.496,0-1.03,0.243-1.03,0.813
		c0,1.37,3.372,1.406,3.372,3.868c0,1.601-1.165,2.438-2.681,2.438c-0.485,0-1.007-0.072-1.48-0.206
		c-0.109-0.025-0.206-0.061-0.315-0.073c-0.146,0-0.254,0.073-0.328,0.194l-0.122-1.765l-0.184,1.693h-4.843h-0.178H53.7
		c0.207-0.158,0.352-0.316,0.352-0.583c0-0.558-0.317-1.261-0.486-1.795h-2.621c-0.193,0.606-0.449,1.225-0.508,1.867
		c0,0.254,0.181,0.401,0.387,0.51h-2.753c0.546-0.376,0.715-0.752,0.946-1.359l1.952-5.293c0.109-0.302,0.219-0.641,0.219-0.955
		c0-0.194-0.086-0.34-0.219-0.472h2.778c-0.133,0.132-0.254,0.278-0.254,0.472c0,0.326,0.146,0.653,0.254,0.955l1.77,5.123
		c0.207,0.56,0.402,1.055,0.839,1.455c0.48-0.394,0.512-0.834,0.512-1.382v-0.327v-4.516c0-0.69-0.012-1.332-0.606-1.78h2.79
		c-0.606,0.448-0.606,1.09-0.606,1.78v5.122h0.679c0.872,0,1.721-0.069,2.325-0.773l-0.043-0.623c0.595,0.813,1.286,1.48,2.365,1.48
		c0.522,0,1.043-0.351,1.043-0.91c0-1.467-3.371-1.48-3.371-4.063c0-1.322,1.261-2.184,2.486-2.184c0.522,0,1.007,0.194,1.492,0.194
		C65.58,17.385,65.701,17.276,65.811,17.179 M53.215,21.885l-0.934-3.097l-0.969,3.097H53.215z"/>
	<path style="fill:#A7A8AD;" d="M78.906,23.688l-2.253-5.102l0.007,4.764c0,0.779,0.025,1.617,0.669,2.088h-3.031h-2.384
		c0.206-0.158,0.351-0.316,0.351-0.583c0-0.558-0.315-1.261-0.486-1.795H69.16c-0.193,0.606-0.448,1.225-0.509,1.867
		c0,0.254,0.182,0.401,0.388,0.51h-2.754c0.546-0.376,0.717-0.752,0.946-1.359l1.953-5.293c0.109-0.302,0.219-0.641,0.219-0.955
		c0-0.194-0.086-0.34-0.219-0.472h2.779c-0.135,0.132-0.255,0.278-0.255,0.472c0,0.326,0.146,0.653,0.255,0.955l1.77,5.123
		c0.193,0.525,0.375,0.992,0.757,1.378c0.512-0.469,0.601-1.186,0.648-1.938l-0.008-5.896c0-0.706-0.091-1.352-0.603-1.823h2.31
		l2.136,4.735l2.056-4.735h2.348c-0.38,0.323-0.653,0.75-0.653,1.309v6.411c0.066,0.808,0.121,1.631,0.804,2.088h-3.031
		c0.458-0.324,0.685-0.751,0.685-1.369v-5.484L78.906,23.688z M71.428,21.885l-0.934-3.097l-0.969,3.097H71.428z"/>
	<path style="fill:#A7A8AD;" d="M0,29.482h1.732c0.927,0,1.754,0.504,1.754,1.586c0,0.75-0.323,1.224-0.759,1.563l1.313,2.247
		l-1.269,0.389l-1.207-2.249h-0.3v2.106H0V29.482z M1.264,31.951c0.782,0,0.907-0.443,0.907-0.817c0-0.437-0.231-0.585-0.584-0.585
		H1.264V31.951z"/>
	<path style="fill:#A7A8AD;" d="M12.692,32.242v2.547l-0.185,0.066c-0.507,0.179-1.159,0.357-1.85,0.357
		c-1.98,0-3.018-1.389-3.018-2.922c0-1.433,1.12-2.893,3.111-2.893c0.796,0,1.442,0.256,1.806,0.558l0.196,0.164l-0.594,0.862
		l-0.23-0.159c-0.266-0.184-0.676-0.358-1.169-0.358c-1.151,0-1.783,0.758-1.783,1.812c0,1.145,0.767,1.87,1.703,1.87
		c0.322,0,0.556-0.026,0.752-0.09v-1.813H12.692z"/>
	<path style="fill:#A7A8AD;" d="M16.752,29.482l2.103,5.642h-1.414l-0.523-1.495h-1.545l-0.546,1.495h-1.294l2.298-5.642H16.752z
		 M16.155,31.372c-0.072,0.392-0.22,0.796-0.371,1.189h0.769C16.419,32.185,16.288,31.8,16.155,31.372"/>
	<path style="fill:#A7A8AD;" d="M22.331,30.92l-0.202-0.148c-0.239-0.175-0.503-0.309-0.713-0.309c-0.376,0-0.512,0.195-0.512,0.411
		c0,0.087,0.033,0.18,0.163,0.32c0.138,0.149,0.358,0.319,0.689,0.557c0.708,0.517,1.217,1.055,1.217,1.853
		c0,1.018-0.951,1.608-1.855,1.608c-0.538,0-1.197-0.188-1.625-0.609l-0.174-0.17l0.62-0.837l0.223,0.158
		c0.302,0.214,0.563,0.392,0.942,0.392c0.385,0,0.607-0.179,0.607-0.555c0-0.201-0.119-0.394-0.342-0.598
		c-0.109-0.099-0.232-0.191-0.359-0.281l-0.365-0.256l-0.328-0.257c-0.111-0.093-0.224-0.198-0.324-0.32
		c-0.207-0.253-0.352-0.574-0.352-1.003c0-0.889,0.843-1.478,1.732-1.478c0.596,0,1.12,0.213,1.466,0.602l0.166,0.189L22.331,30.92z
		"/>
	<rect x="5.244" y="29.436" style="fill:#A7A8AD;" width="1.263" height="5.642"/>
	<rect x="4.478" y="28.409" style="fill:#A7A8AD;" width="2.795" height="0.559"/>
	<polygon style="fill:#A7A8AD;" points="69.36,30.777 67.56,30.618 67.56,31.823 69.324,31.823 69.324,32.741 67.56,32.741 
		67.56,34.072 69.672,33.888 69.672,35.167 66.297,35.167 66.297,29.525 69.36,29.525 	"/>
	<polygon style="fill:#A7A8AD;" points="70.723,29.525 71.986,29.525 71.986,34.071 73.867,33.92 73.867,35.167 70.723,35.167 	"/>
	<path style="fill:#A7A8AD;" d="M82.522,29.525l2.103,5.642h-1.414l-0.523-1.496h-1.544L80.6,35.167h-1.294l2.297-5.642H82.522z
		 M81.926,31.415c-0.072,0.391-0.221,0.795-0.372,1.189h0.77C82.191,32.227,82.058,31.841,81.926,31.415"/>
	<rect x="85.179" y="29.525" style="fill:#A7A8AD;" width="1.264" height="5.642"/>
	<path style="fill:#A7A8AD;" d="M90.08,30.962l-0.202-0.149c-0.239-0.175-0.504-0.309-0.713-0.309c-0.376,0-0.511,0.194-0.511,0.411
		c0,0.086,0.032,0.179,0.163,0.32c0.138,0.149,0.357,0.319,0.687,0.557c0.709,0.518,1.219,1.056,1.219,1.853
		c0,1.017-0.953,1.608-1.856,1.608c-0.537,0-1.196-0.189-1.626-0.61l-0.174-0.17l0.621-0.837l0.222,0.158
		c0.302,0.213,0.562,0.392,0.943,0.392c0.383,0,0.606-0.179,0.606-0.555c0-0.201-0.12-0.395-0.342-0.598
		c-0.108-0.099-0.231-0.192-0.357-0.281l-0.365-0.256l-0.328-0.258c-0.112-0.093-0.224-0.198-0.326-0.321
		c-0.207-0.253-0.351-0.572-0.351-1.002c0-0.889,0.843-1.478,1.732-1.478c0.596,0,1.121,0.213,1.466,0.602l0.166,0.189L90.08,30.962
		z"/>
	<polygon style="fill:#A7A8AD;" points="60.166,29.422 62.545,32.429 64.919,29.423 64.919,35.167 63.756,35.167 63.756,32.678 
		62.545,34.218 61.343,32.691 61.343,35.166 60.166,35.166 	"/>
	<polygon style="fill:#A7A8AD;" points="78.828,35.161 77.834,35.161 75.944,31.882 75.944,35.161 74.805,35.161 74.805,29.52 
		75.767,29.52 77.688,32.816 77.688,29.52 78.828,29.52 	"/>
	<path style="fill:#A7A8AD;" d="M35.199,35.493h1.391c-0.319,0.262-0.348,0.649-0.348,1.022v0.304v5.951
		c0,0.876,0.016,1.475,0.837,1.989h-3.48c0.82-0.514,0.835-1.113,0.835-1.989v-4.592c-0.501,0.418-1.057,0.641-1.712,0.641
		l-0.541-1.557c0.277,0.152,0.556,0.249,0.862,0.249C34.085,37.511,35.171,36.557,35.199,35.493"/>
	<path style="fill:#A7A8AD;" d="M37.742,35.493h5.427c-0.263,4.225-3.396,6.989-3.396,8.488c0,0.362,0.181,0.612,0.502,0.778h-2.491
		c-0.028-0.153-0.042-0.291-0.042-0.445c0-0.862,0.473-1.611,0.932-2.306c0.724-1.111,2.519-3.68,2.629-5.028h-2.003
		c-0.876,0-1.405,0.181-2.046,0.778L37.742,35.493z"/>
	<path style="fill:#A7A8AD;" d="M45.935,36.982l-0.18,1.489h0.334c1.809,0,3.228,1.155,3.228,3.047c0,1.99-1.294,3.423-3.327,3.423
		c-0.555,0-1.085-0.166-1.585-0.166c-0.168,0-0.321,0.055-0.459,0.138l-0.224-2.407c0.501,0.598,1.127,1.002,1.921,1.002
		c1.057,0,1.767-0.877,1.767-1.893c0-1.071-0.864-1.781-1.893-1.781c-0.612,0-1.225,0.278-1.684,0.681l0.556-5.023h4.216
		l0.376,1.847c-0.362-0.303-0.709-0.359-1.183-0.359H45.935z"/>
	<path style="fill:#A7A8AD;" d="M50.58,37.761l0.292-2.463c0.153,0.098,0.334,0.111,0.516,0.111c0.5,0,1.001-0.111,1.502-0.111
		c1.517,0,2.715,1.029,2.715,2.603c0,2.226-1.768,3.979-3.312,5.371h1.461c0.889,0,1.335-0.098,2.017-0.668l-0.472,2.156H50.15
		c-0.042-0.459-0.112-0.931-0.252-1.363c1.476-0.904,4.009-3.103,4.009-4.968c0-0.89-0.584-1.6-1.489-1.6
		C51.484,36.829,51.235,37.233,50.58,37.761"/>
	<path style="fill:#A7A8AD;" d="M50.111,32.801l0.228,0.727c-0.217,0.084-0.583,0.171-0.938,0.171c-1.294,0-2.353-0.776-2.353-2.047
		c0-1.176,0.966-1.97,2.286-1.97c0.256,0,0.717,0.072,0.994,0.194l-0.288,0.688c-0.189-0.055-0.533-0.072-0.645-0.072
		c-0.56,0-1.126,0.361-1.126,1.204c0,0.827,0.573,1.194,1.182,1.194C49.699,32.889,49.934,32.844,50.111,32.801"/>
	<polygon style="fill:#A7A8AD;" points="54.092,29.749 54.092,30.475 52.905,30.475 52.905,31.241 54.065,31.241 54.065,31.968 
		52.905,31.968 52.905,32.906 54.331,32.906 54.331,33.632 51.734,33.632 51.734,29.749 	"/>
	<path style="fill:#A7A8AD;" d="M37.118,29.942l-0.3,0.61c-0.155-0.093-0.355-0.143-0.571-0.143c-0.228,0-0.345,0.111-0.345,0.239
		c0,0.216,0.328,0.394,0.705,0.743c0.499,0.466,0.622,0.76,0.622,1.166c0,0.344-0.284,1.143-1.45,1.143
		c-0.454,0-0.91-0.104-1.22-0.355l0.355-0.643c0.166,0.127,0.388,0.272,0.666,0.272c0.233,0,0.488-0.117,0.488-0.406
		c0-0.311-0.377-0.538-0.682-0.805c-0.406-0.355-0.644-0.56-0.644-1.038c0-0.622,0.628-1.043,1.36-1.043
		C36.596,29.681,36.985,29.859,37.118,29.942"/>
	<rect x="38.847" y="29.749" style="fill:#A7A8AD;" width="1.172" height="3.884"/>
	<path style="fill:#A7A8AD;" d="M45.589,29.749v3.884h-0.783c-0.583-0.705-1.381-1.631-1.754-2.275v2.275h-0.919v-3.884h0.848
		c0.56,0.687,1.409,1.698,1.687,2.224v-2.224H45.589z"/>
	<path style="fill:#A7A8AD;" d="M88.452,19.958c0.094-0.064,0.126-0.188,0.126-0.351c0-0.156-0.043-0.271-0.126-0.339
		c-0.083-0.061-0.221-0.093-0.41-0.093h-0.699v0.882h0.686C88.227,20.058,88.369,20.025,88.452,19.958 M89.026,21.42
		c0.017,0.072,0.048,0.115,0.105,0.151v0.081h-0.538c-0.03-0.075-0.047-0.201-0.058-0.383l-0.007-0.347
		c-0.003-0.16-0.033-0.274-0.095-0.339c-0.052-0.076-0.18-0.12-0.357-0.12h-0.731v1.19h-0.477v-2.88h1.35
		c0.297,0.002,0.472,0.065,0.617,0.214c0.144,0.141,0.218,0.342,0.218,0.588c0,0.339-0.134,0.566-0.412,0.667
		c0.125,0.05,0.217,0.116,0.271,0.211c0.04,0.072,0.061,0.196,0.074,0.369l0.031,0.416C89.017,21.333,89.026,21.397,89.026,21.42
		 M87.889,17.358c1.562,0,2.835,1.27,2.835,2.832c0,1.569-1.273,2.834-2.835,2.834c-1.568,0-2.84-1.266-2.84-2.834
		C85.049,18.628,86.321,17.358,87.889,17.358 M87.889,22.542c1.294,0,2.349-1.05,2.349-2.351c0-1.296-1.055-2.348-2.349-2.348
		c-1.302,0-2.353,1.052-2.353,2.348C85.536,21.491,86.587,22.542,87.889,22.542"/>
</g>
</svg>
