<?xml version="1.0" encoding="iso-8859-1"?>
<!-- Generator: Adobe Illustrator 20.0.0, SVG Export Plug-In . SVG Version: 6.00 Build 0)  -->
<svg version="1.1" id="Layer_1" xmlns="http://www.w3.org/2000/svg" xmlns:xlink="http://www.w3.org/1999/xlink" x="0px" y="0px"
	 viewBox="0 0 104.656 36.114" style="enable-background:new 0 0 104.656 36.114;" xml:space="preserve">
<g>
	<path style="fill:#A8A8AE;" d="M3.795,0C2.53,9.145,1.308,18.295,0.052,27.441c-0.111,1.14-0.048,2.302,0.238,3.414
		c0.36,1.454,1.187,2.816,2.415,3.693c1.46,1.076,3.302,1.459,5.083,1.542c1.626,0.045,3.253,0.013,4.88,0.023
		c29.049-0.004,58.098,0.006,87.148-0.005c1.616-12.034,3.241-24.066,4.84-36.102C71.035,0.003,37.415,0.013,3.795,0z
		 M23.616,24.591c-0.949-0.023-1.973-0.329-2.587-1.094c-0.859-1.227-1.675-2.483-2.54-3.705c-0.184,1.6-0.398,3.197-0.596,4.796
		c-1.948,0.013-3.895,0.002-5.842-0.03c0.513-3.663,0.997-7.331,1.48-10.998c3.145-0.021,6.291-0.003,9.436-0.009
		c1.073-0.017,2.163,0.082,3.185,0.426c0.752,0.253,1.488,0.713,1.856,1.442c0.346,0.665,0.32,1.445,0.238,2.17
		c-0.105,0.829-0.424,1.729-1.182,2.174c-0.821,0.457-1.768,0.602-2.687,0.728c1.376,1.359,2.74,2.729,4.103,4.1
		C26.859,24.594,25.237,24.592,23.616,24.591z M38.381,15.673c-0.409,2.974-0.844,5.944-1.255,8.917
		c-1.282,0.004-2.564,0.001-3.846,0.002c-0.529,0.007-1.077-0.2-1.408-0.623c-0.244-0.318-0.387-0.731-0.325-1.134
		c0.431-2.949,0.821-5.904,1.234-8.854c1.425,0.013,2.85,0.05,4.275,0.054c0.405-0.007,0.841,0.098,1.1,0.435
		C38.419,14.807,38.445,15.265,38.381,15.673z M38.654,12.847c-1.484-0.013-2.968,0.001-4.453-0.005
		c-0.444-0.004-0.98-0.15-1.153-0.609c-0.187-0.56,0.077-1.137,0.129-1.7c1.596,0.003,3.193-0.007,4.789,0.004
		c0.401,0.015,0.907,0.248,0.909,0.71C38.841,11.783,38.753,12.318,38.654,12.847z M64.309,17.273
		c-0.336,2.441-0.673,4.882-1.035,7.32c-1.135,0-2.269-0.004-3.404,0.002c-0.538,0.019-1.101-0.157-1.493-0.533
		c-0.282-0.263-0.375-0.672-0.32-1.043c0.248-1.869,0.481-3.739,0.718-5.609c0.09-0.443-0.327-0.789-0.737-0.809
		c-0.549-0.034-1.099-0.005-1.647-0.014c-0.334,2.669-0.688,5.337-1.033,8.004c-1.256-0.001-2.512,0.002-3.768,0
		c-0.518-0.015-1.105-0.162-1.41-0.616c-0.251-0.399-0.147-0.892-0.099-1.33c0.198-1.559,0.412-3.116,0.597-4.676
		c0.033-0.286,0.062-0.593-0.073-0.859c-0.161-0.357-0.582-0.503-0.949-0.495c-0.427,0.006-0.853-0.033-1.28-0.029
		c-0.334,2.669-0.688,5.338-1.032,8.006c-1.873,0-3.744,0-5.617,0c0.484-3.536,0.99-7.068,1.475-10.604
		c5.34-0.013,10.682-0.002,16.022-0.005c0.934,0.024,1.884-0.084,2.8,0.152c0.731,0.172,1.469,0.522,1.908,1.155
		C64.343,15.857,64.417,16.598,64.309,17.273z M74.745,15.485c-0.408,3.032-0.856,6.058-1.275,9.088
		c-1.315-0.001-2.629,0.004-3.943-0.002c-0.649-0.01-1.3-0.393-1.536-1.014c-0.162-0.345-0.12-0.731-0.046-1.092
		c0.404-2.834,0.785-5.671,1.177-8.506c1.518,0.01,3.037,0.043,4.555,0.071C74.401,14.041,74.879,14.811,74.745,15.485z
		 M75.024,12.801c-1.462,0.032-2.925,0.002-4.386,0.015c-0.372,0.011-0.784-0.05-1.058-0.324c-0.234-0.217-0.294-0.563-0.246-0.867
		c0.056-0.372,0.129-0.741,0.184-1.113c1.447,0.001,2.895,0.002,4.342-0.001c0.326,0,0.672-0.02,0.971,0.134
		c0.224,0.108,0.406,0.341,0.389,0.599C75.192,11.767,75.079,12.281,75.024,12.801z M81.153,25.048
		c0.846-1.962,1.577-3.977,2.106-6.049c0.484-1.928,0.826-3.917,0.717-5.911c-0.098-1.532-0.514-3.141-1.619-4.266
		c-0.065-0.09-0.21-0.148-0.196-0.273c1.304-0.409,2.656-0.734,4.031-0.732c0.886,0.016,1.862,0.262,2.431,0.994
		c0.635,0.83,0.628,1.953,0.473,2.94c-0.273,1.611-0.91,3.132-1.573,4.616c-1.075,2.304-2.366,4.525-4.003,6.478
		C82.816,23.663,82.053,24.445,81.153,25.048z M94.656,13.738c-1.988,4.468-5.938,7.855-10.396,9.727
		c1.679-2.189,3.278-4.454,4.572-6.896c0.606-1.167,1.16-2.378,1.438-3.669c0.159-0.768,0.216-1.621-0.173-2.332
		c-0.124-0.259-0.371-0.423-0.522-0.662c1.254-0.294,2.552-0.546,3.843-0.382c0.753,0.098,1.532,0.532,1.765,1.298
		C95.495,11.822,95.029,12.826,94.656,13.738z"/>
	<path style="fill:#A8A8AE;" d="M22.737,16.805c-0.134-0.407-0.531-0.677-0.944-0.739c-0.851-0.141-1.721-0.158-2.582-0.128
		c-0.076,0.692-0.187,1.378-0.265,2.069c1.281,0,2.562-0.001,3.843,0.001C22.767,17.608,22.839,17.196,22.737,16.805z"/>
</g>
</svg>
