<?xml version="1.0" encoding="iso-8859-1"?>
<!-- Generator: Adobe Illustrator 20.0.0, SVG Export Plug-In . SVG Version: 6.00 Build 0)  -->
<svg version="1.1" id="Layer_1" xmlns="http://www.w3.org/2000/svg" xmlns:xlink="http://www.w3.org/1999/xlink" x="0px" y="0px"
	 viewBox="0 0 72.627 80.346" style="enable-background:new 0 0 72.627 80.346;" xml:space="preserve">
<g>
	<path style="fill:#A7A8AD;" d="M9.354,70.64c-0.119-0.378-0.466-1.23-0.56-1.859c-0.208-1.392,0.519-2.309,1.188-2.519
		c0.75-0.209,1.043,0.167,1.333,1.043c0.375,1.333,0.417,3.081,0.291,5.582c-0.164,3.417-1.874,7.544-6.123,7.458
		c-3.668-0.08-5.291-2.456-5.46-6.081c-0.08-1.709,0.042-3.417,0.75-5.833c0.375-1.294,0.71-1.754,1.875-2.002
		c0.916-0.167,0.833,0.79,0.626,1.919c-0.456,2.499-0.669,3.706-0.5,6.54c0.164,3.001,1.542,4.168,3.042,4.168
		c2.25,0.043,3.249-1.832,3.668-4.543C9.813,72.347,9.564,71.306,9.354,70.64z M57.335,73.599c0.876,0,1.127,1.036,0.919,1.664
		c-0.209,0.624-0.958,1.335-2.124,1.543C55.878,76.179,55.752,73.599,57.335,73.599z M41.045,75.011c0-0.706-0.377-1.29-0.832-1.29
		c-0.379,0-1.251,0.415-1.251,1.749c0,1.045,0.371,1.541,0.541,1.753C40.709,76.848,41.045,75.845,41.045,75.011z M28.083,66.512
		c-0.059-0.669-0.583-1.124-1.292-1.124c-0.791,0-1.536,0.829-1.456,1.873c0.051,0.687,0.456,1.253,1.252,1.253
		C27.5,68.514,28.167,67.472,28.083,66.512z M34.86,68.96c-0.073-1.165-0.355-1.691-0.98-1.648c-0.83,0.05-1.213,2.661-1.044,5.405
		c0.108,1.791,0.374,2.066,0.623,2.049C33.918,74.739,35.019,71.54,34.86,68.96z M62.502,73.346
		c-0.516,2.142-2.082,5.294-4.418,5.294c-0.541,0-1.499-0.21-1.499-0.752c0-0.584,3.669-0.665,3.669-3.458
		c0-1.04-0.958-2.501-2.376-2.501c-1.875,0-3.704,2.044-3.704,4.877c0,2.54,1.578,3.374,3.161,3.374
		c2.751,0,4.418-2.252,5.293-4.126c0.419,1.25,0.665,4.126,1.71,4.126c0.415,0,0.709-0.208,1.209-1.332
		c1.247-2.794,2.457-6.002,4.125-6.002c0.623,0,0.25,1.128,1.749,1.128c0.707,0,1.205-0.584,1.205-1.253
		c0-0.959-0.874-1.707-2.206-1.707c-3.918,0-4.749,5.876-5.374,5.876c-1.042,0-0.709-4.709-1.46-4.709
		C62.919,72.18,62.591,72.974,62.502,73.346z M29.167,78.346c0.624,0,1.698-0.202,2.544-1.556c-0.483-1.073-0.828-3.243-0.876-4.033
		c-0.249-4.04,1.307-7.84,3.011-7.945c1.249-0.076,2.248,1.106,2.363,3.022c0.307,5.033-1.37,7.135-2.209,8.947
		c0.142,0.703,1.334,1.899,2.459,1.899c0.415,0,0.918-0.208,1.044-0.377c-0.084-0.289-0.169-0.665-0.169-1.208
		c0-2.917,1.876-5.376,3.501-5.376c1.292,0,2.042,1.708,2.042,2.836c0,1.331-1.126,2.417-2.792,3.459
		c0.293,0.289,0.832,0.5,1.292,0.5c2.377,0,3.621-2.876,4.542-5.503c0.166-0.501,0.46-1.208,1.042-1.208c1,0,1.418,6.584,3.08,6.584
		c0.711,0,1.293-1.46,1.293-2.582c0-0.835-0.291-0.919-0.291-2.127c0-1.332,0.709-2.456,1.669-2.456
		c0.583,0,0.793,0.581,0.793,1.288c0,2.668-1.919,7.627-4.749,7.627c-2.129,0-1.963-3.667-2.712-3.667
		c-0.837,0-2.004,3.709-6.125,3.709c-0.67,0-1.377-0.333-1.959-1.002c-0.999,0.669-1.834,0.96-2.793,0.96
		c-1.54,0-2.208-1.584-2.832-1.584c-0.752,0-1.582,1.625-4.085,1.625c-2,0-2.333-2.664-3.04-2.664c-0.626,0-1.584,2.664-2.625,2.664
		c-1.753,0-2.124-4.624-3.669-4.624c-1.208,0-5.026,4.697-6.063,4.589c-0.417-0.044-0.592-0.355-0.548-0.771
		c0.059-0.576,0.555-2.12,0.756-2.85c0.337-1.267,0.646-2.656,0.819-3.099c0.171-0.447,0.634-0.766,1.005-0.731
		c0.187,0.018,0.243,0.367,0.301,0.655c0.21,1.031,0.504,2.081,0.836,2.081c0.586,0,2.519-3.709,3.643-3.709
		c1.377,0,1.542,5.835,3.416,5.835c0.626,0,1.087-0.749,1.501-1.668c0.043-1.544,0.459-3.748,1.709-3.748
		c0.876,0,1.293,1.957,0.666,3.667C26.958,77.846,28.29,78.346,29.167,78.346"/>
	<path style="fill:#A7A8AD;" d="M58.192,13c-0.309,0-0.752,0-0.996-0.485c-0.2-0.398-0.133-1.04-0.508-1.327
		c0.376,0.11,0.773,0.11,1.083,0.11c0.996,0,1.948-0.685,2.679-0.685c0.481,0,0.637,0.31,0.637,0.618
		C61.087,12.205,59.122,13,58.192,13z M58.678,15.499c2.298,0,4.401-1.835,4.401-3.449c0-0.753-0.355-1.371-1.262-1.482
		c0.155,0.199,0.221,0.354,0.221,0.707c0,1.217-1.853,2.566-3.868,2.566c-0.731,0-0.952,0.508-0.952,0.773
		C57.218,15.234,57.817,15.499,58.678,15.499z M58.502,16.428c0.288,2.1,3.47,4.931,4.333,4.864
		c0.577-0.049,0.797-2.742,0.797-4.864c0-1.216,0.067-2.167-0.575-2.389C62.038,16.096,59.366,16.516,58.502,16.428"/>
	<path style="fill:#A7A8AD;" d="M8.732,30.336c0.751,0,0.596-4.6,1.812-4.6c0.288,0,0.376,0.287,0.376,0.641
		c0,1.039-0.509,2.566-0.509,3.405c0,0.42,0.111,0.554,0.31,0.554c0.531,0,1.46-5.064,2.366-5.064c0.287,0,0.42,0.287,0.42,0.575
		c0,1.061-1.348,4.112-1.348,4.974c0,0.133,0.044,0.243,0.154,0.243c0.553,0,1.658-2.387,2.012-3.581
		c0.199-0.62,0.464-0.952,0.708-0.952c0.221,0,0.421,0.244,0.421,0.753c0,1.194-1.106,4.002-2.08,5.882
		c-0.751,1.459-1.923,3.558-1.923,4.73c0,0.598,0.109,1.216,0.972,1.968c-1.415-0.088-1.99-0.221-2.52-1.326
		c-2.366,4.709,4.356,4.246,2.056,8.423c-0.421-0.75-3.736-1.524-3.736-5.902c0-3.781,3.316-5.992,3.316-7.562
		c0-0.309-0.109-0.575-0.397-0.818c-0.731-0.62-0.753-1.127-1.327-1.127c-0.419,0-0.93,0.972-0.398,1.835
		c0.177,0.287,0.332,0.465,0.332,0.73c0,0.618-0.974,2.276-1.658,2.276c-0.686,0-1.215-1.7-1.215-4.443
		c0-2.433,0.552-4.886,1.238-4.886c0.198,0,0.264,0.132,0.264,0.31c0,0.287-0.088,0.861-0.088,1.834
		C8.29,30.246,8.533,30.336,8.732,30.336"/>
	<path style="fill:#A7A8AD;" d="M14.369,36.813c0.93,0,1.703-0.687,1.703-2.21v-2.256c0-0.862,0.067-1.835,0.642-2.521
		c-0.067,0.288-0.067,0.598-0.067,0.885c0,1.902,1.061,3.207,1.061,5.041c0,0.684-0.199,1.061-0.729,1.061
		c-0.509,0-0.465-0.465-0.576-0.465c-0.088,0-0.221,0.287-0.221,0.597c0,0.465,0.332,1.194,1.26,1.194
		c0.797,0,1.437-0.729,1.437-1.548c0-1.989-1.548-4.201-1.548-6.323c0-0.929,0.243-1.548,0.442-2.035
		c0,4.401,3.737,7.607,3.737,9.441c0,0.421-0.309,0.753-0.773,0.753c-0.508,0-0.752-0.399-0.752-0.709
		c0-0.155-0.022-0.199-0.088-0.199c-0.132,0-0.53,0.442-0.53,1.018c0,0.729,0.596,1.614,1.702,1.614
		c1.259,0,1.945-1.063,1.945-2.013c0-2.321-4.532-5.837-4.532-9.595c0-0.642,0.109-1.681,0.575-2.477
		c-2.919,1.878-3.825,4.378-3.825,6.567c0,1.902-0.066,2.851-1.039,2.851c-0.509,0-0.642-0.463-0.819-0.463
		c-0.132,0-0.199,0.398-0.199,0.508C13.175,36.349,13.773,36.813,14.369,36.813"/>
	<path style="fill:#A7A8AD;" d="M47.868,11.917c0.281-0.188,1.527,0.11,3.139-0.687c0.199-0.108,0.398-0.153,0.574-0.153
		c0.775,0,0.576,0.884,1.284,0.884c0.552,0,1.261-0.464,1.682-0.464c0.659,0,1.61,2.079,1.61,3.051c0,1.127-1.699,1.814-3.713,1.814
		c-2.939,0-4.71-2.565-4.71-4.224C47.735,12.006,47.803,11.961,47.868,11.917z M52.688,14.725c0.974,0,1.704-0.442,1.704-0.708
		c0-0.087-0.133-0.154-0.421-0.154c-0.287,0-0.863-0.022-1.947-0.199c-0.93-0.155-1.638-0.509-1.904-0.509
		c-0.088,0-0.133,0.044-0.133,0.11C49.988,13.841,51.051,14.725,52.688,14.725"/>
	<path style="fill:#A7A8AD;" d="M14.834,45.149c-0.729,0.177-1.902,1.325-1.902,3.141c0,2.165,2.322,5.506,6.147,5.506
		c3.227,0,4.024-2.233,4.024-3.739c0-3.338-2.055-5.682-4.73-5.682c-1.46,0-2.765,1.062-2.765,2.63c0,1.461,1.106,3.649,3.737,3.649
		c1.238,0,1.968-0.885,1.968-1.9c0-0.996-0.906-2.366-2.233-2.366c-0.398,0-0.684,0.262-0.684,0.684
		c0,0.529,0.729,1.062,1.636,1.062c0.22,0,0.398-0.045,0.487-0.089c0.044,0.068,0.066,0.177,0.066,0.266
		c0,0.509-0.487,0.819-1.238,0.819c-1.127,0-2.211-0.84-2.211-2.169c0-0.794,0.686-1.369,1.681-1.369
		c1.967,0,3.139,1.746,3.139,3.494c0,1.569-0.861,2.477-2.63,2.477C15.784,51.563,14.061,48.378,14.834,45.149"/>
	<path style="fill:#A7A8AD;" d="M40.074,58.104c1.061,0,1.005-0.088,1.338-0.088c0.331,0,0.354,0.199,0.354,0.332
		c0,0.487-1.085,1.084-3.008,1.084c-1.128,0-1.813-0.597-2.012-1.261c-1.105,0.707-2.785,1.349-4.444,1.349
		c-4.532,0-5.682-1.969-7.097-2.609c-1.084-0.487-2.742,0.465-5.064-2.122c0.31,0.067,0.731,0.088,1.062,0.088
		c2.033,0,3.117-0.993,3.117-2.587c0-0.2-0.022-0.419-0.045-0.617c0.62,0.243,2.035,1.303,2.368,3.182
		c0.044,0.222,0.949,0.42,1.524,0.42c0.797,0,1.813-0.332,1.968-1.635c2.653-0.221,4.445-1.79,4.821-3.782
		c0.95,0.31,2.033,1.172,2.299,1.615c0.376-0.133,0.818-0.199,1.326-0.199c0.707,0,1.504,0.133,2.454,0.421
		c0.045-0.287,0.088-0.642,0.531-0.642c0.663,0,0.486,0.73,0.708,1.148c0.111,0.222,0.665,0.354,0.665,0.796
		c0,0.421-0.356,0.576-0.576,0.576c-0.088,0-0.199-0.022-0.266-0.044c-0.442,0.155-0.464,3.337-2.322,3.337
		c-1.37,0-2.631-1.127-3.184-2.541c-0.155-0.42-0.486-0.686-0.796-0.686c-0.353,0-0.553,0.067-0.972,0.531
		c-1.193,1.303-3.184,2.43-5.638,2.43c-0.752,0-1.349-0.067-1.504-0.067c-0.089,0-0.089,0.022-0.089,0.044
		c0,0.156,0.752,0.753,2.388,0.753c3.892,0,4.843-2.19,5.461-2.19c0.09,0,0.353,0,0.508,0.355
		C36.856,57.617,38.835,58.104,40.074,58.104z M38.359,53.685c0,0.487,0.398,0.885,0.885,0.885s0.884-0.398,0.884-0.885
		c0-0.487-0.398-0.885-0.884-0.885S38.359,53.198,38.359,53.685"/>
	<path style="fill:#A7A8AD;" d="M55.87,42.65c-0.31,0-0.642,0.244-0.642,0.842c0,0.661,0.509,1.082,0.796,1.214
		c0.156,0.09,0.399,0.178,0.64,0.178c0.642,0,1.152-0.178,1.152-0.709C57.817,43.492,56.82,42.65,55.87,42.65z M53.485,44.02
		c-0.465,0-3.033,3.427-4.688,3.427c-0.398,0-0.73-0.752-0.73-1.324c0-0.31,0.199-0.531,0.908-0.687
		c3.802-0.862,2.96-3.715,6.208-3.715c1.791,0,3.783,1.218,3.783,3.959c0,2.919-4.155,6.544-4.774,6.544
		c-0.509,0-1.062-0.729-1.062-1.215c0-0.154,0.067-0.354,0.509-0.531c2.12-0.841,3.335-2.786,3.335-3.782
		c0-0.222-0.11-0.44-0.398-0.44c-0.375,0-1.985,3.669-3.778,3.669c-1.24,0-2.502-1.125-2.502-1.657c0-0.885,3.586-2.521,3.586-3.76
		C53.883,44.041,53.662,44.02,53.485,44.02"/>
	<path style="fill:#A7A8AD;" d="M9.726,15.035c0,0-0.641,0.486-1.437,0.486c-0.95,0-1.702-0.707-1.702-1.702
		c0-0.686,0.354-1.393,1.172-1.747c-0.022,0.133-0.022,0.243-0.022,0.376C7.737,13.708,8.445,14.658,9.726,15.035z M14.458,19.28
		c-0.486,0.574-0.995,1.548-0.995,2.542c0,1.193,0.731,2.188,1.858,2.188c1.083,0,1.592-0.928,1.592-1.878
		C16.913,20.651,15.564,19.61,14.458,19.28z M7.119,20.164c-0.042,0.068-0.067,0.155-0.067,0.244c0,0.199,0.222,0.42,0.419,0.42
		c0.177,0,0.287-0.044,0.376-0.044c0.53,0,1.127,0.375,1.99,0.375c0.508,0,1.105-0.155,1.857-0.53
		c1.592-0.797,2.212-2.764,2.212-3.096c0-0.421-0.338-0.365-0.62-0.752c-0.282-0.385-0.174-0.726-0.354-0.907
		c-0.102-0.104-0.419-0.11-0.818-0.155c-0.133-0.014-0.31-0.022-0.487-0.022c-0.729,0-1.594,0.09-2.564,0.708
		C7.144,17.63,7.427,19.656,7.119,20.164z M12.314,17.422c0.153,0.209,0.576,0.465,0.576,0.62c0,0.309-0.178,0.707-0.531,0.707
		c-0.775,0-1.393-1.172-1.393-1.837c0-0.419,0.244-0.463,0.574-0.463c0.155,0,0.222,0.022,0.332,0.088
		C12.07,16.649,12.07,17.091,12.314,17.422z M10.279,20.12c-0.729,0-1.525-0.906-1.525-1.725c0-0.442,0.332-0.995,0.574-0.995
		c0.088,0,0.133,0.067,0.155,0.222c0.133,1.083,0.841,1.703,1.504,2.011c0.066,0.044,0.111,0.066,0.111,0.11
		C11.098,19.899,10.677,20.12,10.279,20.12z M12.159,14.548c0.11-0.354,0.199-0.795,0.199-1.283c0-1.061-0.487-2.675-1.991-2.675
		c-0.862,0-1.482,0.685-1.482,1.504C8.885,13.841,10.632,14.548,12.159,14.548z M6.432,23.392c0,1.68,0.509,2.477,1.415,2.477
		c0.708,0,1.658-0.509,2.785-1.482c-0.862,0.199-1.526,0.332-2.122,0.332C7.715,24.719,7.096,24.409,6.432,23.392z M7.207,21.424
		c-0.022,0.111-0.022,0.222-0.022,0.332c0,1.039,0.552,1.614,1.282,1.614c0.551,0,1.193-0.332,1.767-1.062
		c-0.242,0.044-0.53,0.066-0.795,0.066C8.621,22.374,7.737,22.154,7.207,21.424z M12.623,21.115
		c-0.51,0.133-1.571,0.752-1.571,1.857c0,0.795,0.618,1.305,1.393,1.305c0.398,0,0.685-0.089,0.862-0.222
		c-0.618-0.597-0.84-1.26-0.84-1.923C12.469,21.667,12.534,21.38,12.623,21.115z M13.419,15.056c0,0.486,0.398,0.885,0.884,0.885
		c0.487,0,0.885-0.399,0.885-0.885c0-0.486-0.398-0.885-0.885-0.885C13.817,14.171,13.419,14.57,13.419,15.056z M14.568,17.046
		c0,0.487,0.399,0.885,0.886,0.885c0.485,0,0.884-0.398,0.884-0.885c0-0.485-0.398-0.884-0.884-0.884
		C14.967,16.162,14.568,16.561,14.568,17.046"/>
	<path style="fill:#A7A8AD;" d="M49.064,27.902c0-0.442,0.398-0.818,0.835-0.818c0.487,0,0.864,0.376,0.864,0.818
		c0,0.508-0.376,0.863-0.864,0.863C49.462,28.765,49.064,28.411,49.064,27.902z M41.301,21.093c0,0.486,0.399,0.884,0.884,0.884
		c0.488,0,0.887-0.398,0.887-0.884c0-0.486-0.399-0.884-0.887-0.884C41.7,20.209,41.301,20.607,41.301,21.093z M40.55,24.21
		c0,0.686,0.573,1.26,1.26,1.26c0.684,0,1.261-0.574,1.261-1.26c0-0.684-0.577-1.26-1.261-1.26
		C41.123,22.949,40.55,23.525,40.55,24.21z M43.336,22.795c0,0.753,0.597,1.349,1.345,1.349c0.752,0,1.351-0.596,1.351-1.349
		c0-0.752-0.599-1.348-1.351-1.348C43.933,21.446,43.336,22.043,43.336,22.795z M43.448,19.92c0,0.465,0.376,0.842,0.836,0.842
		c0.464,0,0.841-0.377,0.841-0.842c0-0.463-0.377-0.839-0.841-0.839C43.823,19.081,43.448,19.457,43.448,19.92z M47.448,17.799
		c0,0.463,0.376,0.839,0.841,0.839c0.465,0,0.841-0.376,0.841-0.839c0-0.465-0.376-0.841-0.841-0.841
		C47.824,16.958,47.448,17.334,47.448,17.799z M45.788,20.519c0,0.773,0.641,1.414,1.416,1.414c0.775,0,1.417-0.641,1.417-1.414
		c0-0.775-0.642-1.415-1.417-1.415C46.43,19.103,45.788,19.744,45.788,20.519z M43.513,25.692c0,0.487,0.398,0.884,0.881,0.884
		c0.487,0,0.885-0.397,0.885-0.884c0-0.487-0.399-0.885-0.885-0.885C43.911,24.807,43.513,25.205,43.513,25.692z M46.408,23.922
		c0,0.487,0.398,0.885,0.885,0.885c0.486,0,0.884-0.398,0.884-0.885c0-0.486-0.398-0.884-0.884-0.884
		C46.806,23.038,46.408,23.437,46.408,23.922z M45.59,27.04c0,0.84,0.685,1.526,1.526,1.526c0.841,0,1.528-0.686,1.528-1.526
		c0-0.84-0.687-1.526-1.528-1.526C46.275,25.514,45.59,26.2,45.59,27.04z M48.775,25.16c0,0.576,0.465,1.04,1.036,1.04
		c0.575,0,1.04-0.465,1.04-1.04c0-0.574-0.465-1.038-1.04-1.038C49.241,24.121,48.775,24.586,48.775,25.16z M48.709,22.374
		c0,0.51,0.421,0.93,0.924,0.93c0.51,0,0.93-0.42,0.93-0.93c0-0.508-0.421-0.928-0.93-0.928
		C49.13,21.446,48.709,21.866,48.709,22.374"/>
	<path style="fill:#A7A8AD;" d="M50.962,51.385c-0.575,0.443-1.92,1.436-4.156,1.436c-1.194,0-1.726-0.376-1.903-0.376
		c-0.222,0-0.465,0.221-0.708,0.509c-0.525,0.62-1.212,1.77-1.212,3.029c0,0.884,0.686,1.767,1.964,1.767
		c4.139,0,7.232-2.586,7.232-4.685C52.179,51.872,51.471,51.385,50.962,51.385z M49.812,51.142c0.179-0.152,0.221-0.398,0.221-0.642
		v-0.508c0-0.642-0.969-1.016-2.297-1.016c-1.615,0-2.479,0.728-2.479,1.038v1.017c0,0.421,0.975,0.841,2.169,0.841
		C48.377,51.872,49.241,51.629,49.812,51.142z M49.634,53.331c0.111,0,0.243,0.065,0.243,0.465c0,0.485-0.22,1.126-1.013,1.634
		c-0.553,0.377-1.306,0.687-2.412,0.707c0.177-0.529,0.31-1.083,0.31-1.611c0-0.177-0.022-0.311-0.044-0.509h0.287
		C48.754,54.017,49.506,53.331,49.634,53.331"/>
	<path style="fill:#A7A8AD;" d="M41.19,26.312c0.243,1.878,2.766,0.928,2.766,3.204c0,0.332-0.088,0.82-0.088,1.239
		c0,0.487,0.044,0.907,0.416,0.907c0.375,0,0.464-0.265,0.464-0.619c0-0.354-0.089-0.796-0.089-1.039c0-0.774,0.554-0.95,0.886-0.95
		c0.841,0,1.482,0.862,2.744,0.862c-0.288,1.415-3.209,1.039-3.209,2.587c0,0.774,0.775,0.95,1.284,0.95
		c0.465,0,0.62-0.066,0.62-0.463c0-0.222-0.045-0.466-0.045-0.62c0-0.089,0.067-0.177,0.177-0.177c0.488,0,2.872,1.814,2.872,2.367
		c0,0.508-2.517,1.016-3.247,1.016c-0.222,0-0.266-0.155-0.266-0.243c0-0.155,0.376-0.619,0.376-0.884
		c0-0.199-0.332-0.332-1.217-0.332c-0.421,0-0.731,0.044-0.731,0.376c0,0.596,0.974,1.326,0.974,1.878
		c0,0.443-0.265,0.708-0.974,0.708c-0.597,0-1.501-0.465-1.501-1.238c0-0.619,0.638-1.237,0.638-1.614
		c0-0.11-0.084-0.287-0.349-0.287c-0.82,0-1.04,2.166-3.938,2.41c0.464-0.42,0.862-0.885,0.862-1.834
		c0-0.464-0.109-0.841-0.109-1.349c0-0.664,0.309-0.996,0.751-0.996c0.818,0,1.216,1.149,1.749,1.149
		c0.288,0,0.597-0.264,0.597-0.662c0-1.681-3.23-1.437-3.23-3.803C40.372,28.212,40.592,27.416,41.19,26.312z M51.736,32.79
		c0,0.552,0.178,1.193,0.731,1.193c0.464,0,0.862-0.706,0.862-1.481c0-0.885-0.155-1.571-0.155-1.925c0-0.154,0.067-0.22,0.155-0.22
		c0.332,0.022,0.642,0.928,0.996,0.928c0.398,0,0.992-0.731,1.234-0.731c0.067,0,0.088,0.089,0.088,0.111
		c0,0.332-0.509,1.063-0.509,1.35c0,0.243,1.284,0.287,1.284,0.508c0,0.332-1.346,0.332-1.987,0.62
		c-0.619,0.265-0.997,0.596-0.997,1.039c0,0.442,0.443,0.53,1.063,0.53c1.478,0,2.517-0.795,2.848-0.795
		c0.066,0,0.11,0.043,0.11,0.11c0,0.222-0.752,0.951-0.752,1.283c0,0.375,1.372,0.816,1.35,1.038
		c-0.022,0.066-0.111,0.088-0.265,0.088c-0.245,0-0.62-0.066-0.908-0.066c-0.177,0-0.332,0.021-0.399,0.11
		c-0.153,0.177,0.045,1.35-0.263,1.35c-0.288,0-1.04-2.609-2.739-2.609c-0.244,0-0.421,0.199-0.421,0.531
		c0,0.884,0.863,1.901,1.682,2.387c0.371,0.244,0.991,0.487,0.991,0.62c0,0.264-1.412,0.021-1.412,0.463
		c0,0.398,0.177,0.997,0.177,1.349c0,0.111-0.022,0.243-0.155,0.243c-0.265,0-0.908-1.216-1.217-1.216
		c-0.265,0-0.841,0.729-1.085,0.729c-0.066,0-0.11-0.066-0.11-0.132c0-0.509,0.819-1.658,0.819-2.786
		c0-0.531-0.067-1.681-0.709-1.681c-0.531,0-1.129,0.84-1.395,1.681c-0.154,0.486-0.044,2.366-0.398,2.366
		c-0.332,0-0.243-1.26-0.686-1.26c-0.326,0-1.035,0.596-1.278,0.596c-0.045,0-0.089-0.022-0.089-0.066
		c0-0.265,0.642-1.127,0.642-1.305c0-0.331-1.46-0.375-1.46-0.641c0-0.155,0.575-0.265,1.106-0.355
		c1.125-0.199,2.784-1.017,2.784-2.166c0-1.282-1.239-1.836-2.053-2.366c-0.421-0.265-0.885-0.485-0.885-0.662
		c0-0.177,0.531-0.177,0.752-0.177c0.332,0,0.659-0.022,0.659-0.287c0-0.2-0.045-0.597-0.045-0.907c0-0.222,0.022-0.398,0.111-0.398
		c0.332,0,0.796,1.083,1.018,1.083c0.353,0,0.84-0.884,1.173-0.884c0.109,0,0.154,0.067,0.154,0.265
		C52.157,31.064,51.736,31.992,51.736,32.79"/>
	<path style="fill:#A7A8AD;" d="M41.831,38.913c1.018,0.133,1.262,0.486,1.262,0.775c0,0.487-0.443,0.641-0.864,0.641
		c-0.309,0-0.663-0.066-1.039-0.066c-0.487,0-0.973,0.111-1.371,0.575c0.287,0.044,0.708,0.244,0.708,0.686
		c0,1.282-3.56,0.22-3.56,3.516c0,1.746,1.813,3.649,4.554,3.649c1.417,0,2.324-0.465,2.324-0.996c0-0.419-0.752-0.133-0.752-0.487
		c0-0.154,0.265-0.443,0.265-0.687c0-0.107-0.088-0.307-0.265-0.307c-0.4,0-1.152,0.64-2.678,0.64c-1.194,0-2.366-0.683-2.366-1.613
		c0-0.198,0.089-0.31,0.222-0.31c0.133,0,0.309,0.089,0.464,0.089c0.133,0,0.155-0.089,0.155-0.332c0-0.244,0-0.93,0.419-0.93
		c0.421,0,1.217,1.548,4.271,1.548c1.013,0,2.983-0.198,3.713-0.862c-0.022,2.432-1.926,5.638-5.904,5.638
		c-4.135,0-6.346-3.317-6.346-6.369c0-3.382,2.763-6.455,6.545-6.455c0.972,0,1.792,0.331,1.792,0.751
		C43.38,38.583,41.942,38.229,41.831,38.913z M48.621,40.087c0.154,0.242,0.222,0.485,0.222,0.706c0,0.62-0.421,1.194-0.421,1.836
		c0,0.729,0.554,1.325,1.39,1.325c0.907,0,1.526-0.728,1.526-1.592C51.338,41.191,50.276,40.197,48.621,40.087z M41.301,41.501
		c0.22,0.22,0.287,0.442,0.287,0.663c0,0.332-0.155,0.686-0.155,1.062c0,0.529,0.398,0.994,0.973,0.994
		c0.62,0,1.042-0.487,1.042-1.06C43.448,42.319,42.582,41.501,41.301,41.501z M44.239,37.742c2.324,0.442,3.584,2.19,3.584,3.826
		c0,1.128-0.708,2.165-1.947,2.165c-1.129,0-1.943-0.773-1.943-2.012c0-0.928,0.725-1.901,0.725-2.853
		C44.659,38.494,44.549,38.118,44.239,37.742z M45.39,40.683c0,0.309,0.222,0.553,0.531,0.553c0.353,0,0.575-0.31,0.575-0.664
		c0-0.464-0.421-1.105-0.819-1.105c-0.177,0-0.111,0.265-0.155,0.553C45.5,40.24,45.39,40.505,45.39,40.683"/>
	<path style="fill:#A7A8AD;" d="M20.981,17.931c0.752,0,1.613-4.068,1.613-4.755c0-0.177-0.065-0.31-0.22-0.31
		c-0.686,0-1.636,3.87-1.636,4.733C20.738,17.754,20.782,17.931,20.981,17.931z M26.399,19.147c0.552,0,1.171-2.123,1.171-3.45
		c0-0.287-0.044-0.596-0.177-0.596c-0.464,0-1.238,2.189-1.238,3.382C26.154,18.948,26.265,19.147,26.399,19.147z M22.793,17.179
		c0.243,0,0.553-0.266,1.129-0.906c0.044-0.287,0.044-0.554,0.044-0.885c0-0.441-0.177-0.928-0.442-0.928
		c-0.665,0-0.995,1.769-0.995,2.234C22.529,16.958,22.661,17.179,22.793,17.179z M25.822,16.273c0-0.377-0.089-0.465-0.177-0.465
		c-0.222,0-0.464,0.266-0.818,0.863c0.044,0.796,0.177,1.15,0.398,1.15C25.469,17.821,25.822,17.046,25.822,16.273z M27.525,13.664
		c1.46,0,2.122,1.26,2.122,2.676c0,0.618-0.175,1.526-0.463,1.526c-0.287,0-0.243-0.509-0.287-0.974
		c-0.044-0.597-0.156-0.729-0.355-0.729c-0.376,0-0.618,0.884-0.618,1.703c0,0.508,0.088,1.083,0.485,1.083
		c0.222,0,0.421-0.111,0.554-0.243c-0.088,1.016-0.841,1.902-1.902,1.902c-1.946,0-2.676-2.278-2.896-3.605
		c-1.172,1.238-2.255,2.145-4.201,2.145c-1.812,0-2.631-1.327-2.631-2.586c0-0.377,0.133-1.349,0.597-1.349
		c0.553,0,0.066,1.812,1.149,1.812c0.266,0,0.751-0.221,1.017-0.95c0.154-0.443,0.243-0.906,0.243-1.305
		c0-0.597-0.132-0.972-0.574-0.972c-0.377,0-0.841,0.286-0.996,0.441c0.531-1.592,1.813-2.41,3.227-2.41
		c1.749,0,2.676,1.548,2.676,3.273c0,0.242-0.022,0.508-0.067,0.751C25.358,14.614,26.399,13.664,27.525,13.664"/>
	<path style="fill:#A7A8AD;" d="M23.391,19.61c-0.951,0-0.994,1.152-0.994,3.472c-0.708-1.525-1.879-3.162-3.251-3.162
		c-0.928,0-1.282,0.62-1.282,1.702c0,0.222,0.022,0.554,0.066,0.752c0.111-0.375,0.465-0.53,0.906-0.53
		c0.952,0,2.101,0.729,2.852,1.725c-0.862-0.155-1.702-0.31-2.409-0.31c-0.443,0-0.841,0.045-1.172,0.199
		c-0.642,0.287-1.503,1.238-1.503,2.676c0,0.222,0.022,0.464,0.067,0.729c0.773-1.725,2.83-2.499,4.157-2.499
		c0.266,0,0.464,0.022,0.619,0.045c-0.686,0.618-0.84,1.702-0.885,2.432c-0.021,0.354-0.154,0.377-0.398,0.377
		c0,0.729,0.576,1.813,0.576,2.365c0,0.199-0.111,0.376-0.221,0.421c0,0.973,0.972,1.681,0.972,2.299
		c0,0.155-0.044,0.287-0.111,0.354c0.067,0.398,1.137,1.067,1.275,1.403c0.17,0.407,0.361,0.477,0.472,0.477
		c0.376,0,0.972-0.443,0.972-0.841c0-0.133-0.111-0.287-0.198-0.354c-0.421-0.309-0.642-0.972-0.819-1.414
		c-0.156,0-0.355-0.066-0.425-0.326c-0.121-0.458-0.127-1.31-0.304-1.819c-0.287-0.066-0.421-0.177-0.421-0.773
		c0-0.287,0.177-1.416,0.177-1.814c-0.133,0-0.309-0.089-0.309-0.354c0-0.707,0.708-1.26,0.906-2.166
		c1.261,0.928,1.569,1.879,1.569,2.72c0,0.441-0.066,0.861-0.154,1.26c0.929-0.465,2.322-1.15,2.322-2.543
		c0-0.819-0.376-1.725-2.875-2.079c0.773-0.288,1.747-0.442,2.565-0.442c1.416,0,2.233,0.442,2.41,1.436
		c0.287-0.441,0.509-0.95,0.509-1.414c0-1.084-0.907-1.79-2.057-1.79c-1.349,0-2.542,0.706-3.826,1.57
		c0.576-1.194,0.973-1.901,1.681-1.901c0.11,0,0.221,0.022,0.332,0.045C24.916,20.563,23.922,19.61,23.391,19.61"/>
	<path style="fill:#A7A8AD;" d="M60.644,35.553c1.107,0,1.992,1.437,1.992,3.118c0,1.791-0.841,3.737-2.341,5.062
		c-0.022-2.984-3.675-2.033-3.675-4.2c0-0.928,0.665-1.549,1.462-1.549c0.708,0,1.261,0.199,1.66,0.598
		c-0.398-0.377-0.597-0.908-0.597-1.416C59.144,36.326,59.675,35.553,60.644,35.553"/>
	<path style="fill:#A7A8AD;" d="M40.902,14.548c0.576,0.553,1.083,0.795,1.703,0.795c0.245,0,0.533-0.066,0.688-0.066
		c0.199,0,0.331,0.088,0.331,0.243c0,0.244-0.222,0.642-0.486,0.863c0.264,0.11,0.553,0.155,0.863,0.155
		c1.256,0,2.694-0.797,2.694-2.786c0.266,0.352,0.421,1.083,0.421,1.415c0,2.41-1.771,3.338-3.404,3.338
		c-1.062,0-1.594-0.355-1.728-0.355c-0.419,0-0.397,0.841-0.684,0.819c-0.509-0.089-0.973-1.216-0.973-2.41
		C40.328,15.852,40.505,15.101,40.902,14.548z M44.239,12.934c-0.177-0.288-0.837-0.442-1.146-0.442
		c-0.975,0-1.638,0.685-1.771,1.305c-0.088-0.222-0.155-0.487-0.155-0.752c0-0.973,0.664-2.167,2.28-2.167
		c1.411,0,1.964,0.751,2.164,0.751c0.221,0,0.442-0.222,0.62-0.222c0.243,0,0.243,0.376,0.243,0.642c0,0.884-0.399,2.41-1.395,2.963
		c-0.177-0.376-0.531-0.797-1.102-1.062c-0.154-0.066-0.221-0.198-0.221-0.332C43.757,13.376,43.978,13.066,44.239,12.934"/>
	<path style="fill:#A7A8AD;" d="M25.535,8.114c0,0.774,2.763,4.555,3.295,4.555c0.443,0,0.774-0.774,0.774-1.438
		c0-0.175-0.045-0.352-0.132-0.485c-0.398-0.553-3.206-2.764-3.826-2.764C25.579,7.981,25.535,8.047,25.535,8.114z M9.284,5.836
		c0,0.443-1.68,1.924-2.276,1.924c-0.221,0-0.288-0.265-0.288-0.508c0-0.442,0.199-1.062,0.443-1.261
		c0.286-0.265,0.95-0.396,1.459-0.396C8.93,5.595,9.284,5.659,9.284,5.836z M29.472,7.119c0-1.327-3.587-3.737-3.627-4.775
		c-0.004-0.095,0.048-0.19,0.129-0.274c0.615-0.648,3.166-1.121,3.166-1.673c0-0.286-0.531-0.286-0.796-0.286
		c-2.056,0-5.063,0.751-5.063,1.481c0,0.753,2.697,2.588,2.697,3.495c0,0.243-0.155,0.331-0.398,0.331
		c-0.751,0-2.387-0.907-3.161-0.907c-0.354,0-0.487,0.243-0.487,0.598c0,1.061,1.261,3.073,1.261,3.668
		c0,0.067-0.022,0.155-0.111,0.155c-0.398,0-2.276-2.21-2.941-2.21c-0.243,0-0.265,0.331-0.265,0.818v0.752
		c0,0.508-0.022,0.818-0.264,0.818c-0.576,0-0.841-1.614-1.394-1.614c-0.575,0-0.686,2.873-1.238,2.873
		c-0.642,0-0.089-3.162-0.708-3.162c-0.685,0-1.46,2.101-1.946,2.101c-0.176,0-0.22-0.178-0.22-0.332
		c0-0.641,0.375-1.68,0.375-2.298c0-0.311-0.088-0.487-0.353-0.487c-0.686,0-2.19,1.105-2.764,1.105
		c-0.088,0-0.199-0.044-0.199-0.133c0-0.529,2.41-2.21,2.41-2.962c0-0.731-3.318-0.243-3.318-1.084c0-0.707,2.368-1.437,2.368-2.167
		c0-0.642-2.809-0.928-3.891-0.928c-1.305,0-2.012,0.153-2.012,0.529c0,0.575,2.963,0.753,2.963,1.261
		c0,0.487-3.074,1.791-3.074,2.543c0,0.664,4.333,0.044,4.333,0.731c0,0.751-3.779,4-3.779,5.084c0,0.244,0.177,0.354,0.419,0.354
		c1.15,0,4.134-2.189,4.952-2.189c0.287,0,0.31,0.353,0.31,0.663c0,0.575-0.199,1.459-0.199,2.101c0,0.508,0.133,0.861,0.574,0.861
		c0.82,0,1.57-1.393,2.124-1.393c0.707,0,0.287,4.09,1.348,4.09c0.906,0,1.282-4.422,1.857-4.422c0.575,0,1.04,1.282,1.571,1.282
		c0.663,0,0.353-2.233,1.062-2.233c0.773,0,2.984,2.654,3.979,2.654c0.309,0,0.419-0.244,0.419-0.554
		c0-1.172-1.635-3.824-1.635-4.664c0-0.221,0.065-0.287,0.309-0.287c0.862,0,3.384,1.193,4.577,1.193
		C29.229,7.627,29.472,7.407,29.472,7.119z M27.171,2.741c0,0.398,1.393,1.261,2.035,1.261c0.375,0,0.486-0.509,0.486-1.04
		c0-0.663-0.286-0.685-0.862-0.685C28.1,2.277,27.171,2.476,27.171,2.741z M21.976,0.486c0-0.133-0.663-0.266-1.569-0.266
		c-1.437,0-1.238,1.196-2.343,1.196c-1.15,0-0.864-1.24-2.323-1.24c-0.884,0-1.701,0.155-1.701,0.354
		c0,0.266,1.038,0.155,1.038,0.886c0,0.773-2.233,0.995-2.233,1.459c0,0.154,0.176,0.221,0.398,0.221
		c0.487,0,1.26-0.221,1.813-0.221c0.31,0,0.597,0.066,0.597,0.353c0,0.553-1.195,1.548-1.195,1.99c0,0.133,0.11,0.178,0.221,0.178
		c0.443,0,1.195-1.128,1.902-1.128c1.172,0,0.399,2.498,1.039,2.498c0.663,0,0.376-2.455,1.327-2.455
		c0.775,0,1.349,1.703,1.88,1.703c0.133,0,0.243-0.11,0.243-0.265c0-0.463-0.663-1.415-0.663-2.034c0-0.376,0.265-0.554,0.619-0.554
		c0.508,0,1.193,0.31,1.569,0.31c0.133,0,0.265-0.044,0.265-0.199c0-0.531-1.966-1.105-1.966-1.79
		C20.893,0.796,21.976,0.796,21.976,0.486"/>
	<path style="fill:#A7A8AD;" d="M61.175,4.069c0,1.967-1.433,3.47-4.023,3.89c0.288,0.022,0.554,0.022,0.82,0.022
		c3.027,0,4.134-1.37,4.134-2.519C62.105,4.82,61.751,4.246,61.175,4.069z M57.44,6.301c0-1.57-3.756-1.968-3.756-2.321
		c0-0.287,2.097-0.774,3.181-0.797c-1.658-2.122-4.021-1.901-4.021-2.277c0-0.221,1.77-0.664,3.404-0.664
		c1.371,0,2.653,0.31,2.653,1.349c0,0.576-0.464,1.174-0.464,2.057c0,0.487,0.242,0.907,0.885,0.907
		c0.687,0,0.841-0.729,0.841-1.504c0-0.64-0.11-1.127-0.11-1.437c0-0.928,0.637-1.547,1.544-1.547c0.752,0,0.93,0.33,2.036,0.33
		c-0.598,0.355-0.819,0.997-0.819,1.305c0,0.93,0.599,1.571,0.599,3.472c0,3.492-3.272,4.73-7.276,4.73
		c-1.1,0-2.275-0.088-3.426-0.264c-0.176-0.022-0.221-0.066-0.221-0.177c0-0.288,1.572-0.443,1.572-1.857
		c0-0.554-0.177-1.084-0.177-1.282c0-0.111,0.088-0.178,0.177-0.178c0.332,0,0.996,1.282,2.231,1.282
		C56.62,7.428,57.44,7.317,57.44,6.301z M61.042,1.415c0,0.309,0.243,0.552,0.553,0.552c0.31,0,0.554-0.243,0.554-0.552
		c0-0.31-0.244-0.554-0.554-0.554C61.286,0.861,61.042,1.105,61.042,1.415"/>
	<path style="fill:#A7A8AD;" d="M59.078,21.844c0-0.464-1.174-0.508-1.284-1.813c-0.023-0.198-0.089-0.552-0.333-0.552
		c-0.398,0-0.088,1.216-0.531,1.216c-1.017,0-1.348-1.991-1.724-1.991c-0.089,0-0.195,0.066-0.195,0.332
		c0,0.244,0.045,0.398,0.045,0.684c0,0.289-0.067,0.488-0.332,0.488c-0.597,0-1.129-1.394-1.638-1.394
		c-0.111,0-0.221,0.067-0.221,0.177c0,0.265,0.442,0.751,0.442,0.995c0,0.531-1.438,0.243-1.438,0.686
		c0,0.199,0.198,0.265,0.464,0.265c0.465,0,1.195-0.198,1.572-0.198c0.222,0,0.553,0.044,0.553,0.33c0,0.31-0.796,0.707-0.796,0.995
		c0,0.133,0.133,0.198,0.243,0.198c0.597,0,1.655-1.038,2.407-1.038c0.133,0,0.464,0.066,0.464,0.265
		c0,0.287-0.752,0.795-0.752,1.215c0,0.111,0.067,0.243,0.2,0.243c0.396,0,0.927-1.038,1.68-1.038c0.287,0,0.708,0.111,0.93,0.111
		C59.012,22.022,59.078,21.911,59.078,21.844z M59.653,32.568c0.355-1.105,0.797-1.88,1.522-3.074
		c-0.725-0.375-2.651-1.172-2.651-2.477c0-1.526,1.902-2.719,2.297-2.719c0.177,0,0.222,0.155,0.222,0.443
		c0,0.795-0.376,2.078-0.376,2.764c0,0.618,0.398,1.217,0.752,1.217c0.376,0,1.416-1.327,1.416-2.632
		c0-2.344-2.058-3.051-2.695-3.051c-0.597,0-1.682,0.972-4.226,0.972c-4.753,0-5.837-4.708-5.837-6.765
		c0-0.088,0.021-0.111,0.043-0.111c0.111,0,0.576,0.576,2.08,0.576c0.775,0,1.483-0.2,2.612-0.2c2.649,0,3.822,1.837,5.46,4.179
		c0.99,0.618,3.359,1.614,3.359,4.422c0,2.476-2.633,3.847-3.27,6.501c1.013-0.11,1.611-1.924,2.651-1.924
		c0.531,0,0.775,0.421,0.775,1.085c0,0.972-0.554,2.432-1.615,3.338c0.022-0.088,0.022-0.2,0.022-0.332
		c0-0.619-0.243-1.502-0.952-1.502c-1.101,0-1.455,1.194-2.074,2.187c-0.642-2.254-1.505-4.289-3.053-5.528
		c-1.566-1.26-4.267-0.575-4.267-2.874c0-0.62,0.399-1.504,0.399-2.211c0-0.243-0.045-0.465-0.178-0.642
		c2.125,0.797,1.372,2.21,2.679,3.67c0.814,0.93,3.07,1.814,4.375,5.638c0.022-0.11,0.044-0.397,0.044-0.596
		c0-3.273-4.332-6.48-4.708-7.806c2.516,0.287,2.959,0.907,4.154,4.224C58.856,30.026,59.653,31.729,59.653,32.568"/>
	<path style="fill:#A7A8AD;" d="M47.559,9.175c-1.549,0-2.567-0.773-2.567-1.172c0-0.199,0.133-0.331,0.311-0.331
		c0.486,0,1.548,0.751,1.902,0.751c0.09,0,0.156-0.043,0.156-0.176c0-0.398-0.376-1.061-0.376-1.392
		c0-0.089,0.067-0.155,0.199-0.155c0.597,0,1.482,0.243,1.948,0.243c0.154,0,0.199-0.088,0.199-0.178
		c0-0.486-1.439-1.437-1.439-1.725c0-0.265,1.788-0.664,1.788-1.083c0-0.443-2.43-0.133-2.43-0.554c0-0.309,0.465-0.84,0.465-1.083
		c0-0.111-0.089-0.155-0.243-0.155c-0.199,0-1.261,0.42-1.704,0.42c-0.221,0-0.487-0.044-0.487-0.354
		c0-0.508,0.863-1.061,2.213-1.061c2.186,0,3.492,1.503,3.492,4.024C50.985,8.38,48.754,9.175,47.559,9.175z M43.248,4.975
		c0-0.244-0.864-0.708-0.864-0.973c0-0.044,0.043-0.066,0.11-0.066c0.245,0,0.665,0.088,0.998,0.088
		c0.287,0,0.332-1.238,0.549-1.238c0.154,0,0.419,1.172,0.665,1.172c0.287,0,0.818-0.332,1.039-0.332
		c0.044,0,0.088,0.022,0.088,0.067c0,0.155-0.553,0.751-0.553,0.928c0,0.199,1.24,0.443,1.24,0.62c0,0.221-1.262,0.199-1.262,0.398
		c0,0.153,0.466,0.773,0.466,0.972c0,0.045-0.023,0.067-0.067,0.067c-0.177,0-0.863-0.311-1.062-0.311
		c-0.244,0-0.638,0.907-0.837,0.907c-0.066,0-0.11-0.088-0.11-0.199l-0.045-0.884c0-0.088-0.044-0.177-0.154-0.177
		c-0.266,0-0.775-0.022-0.931-0.022c-0.111,0-0.155-0.022-0.155-0.066C42.362,5.748,43.248,5.129,43.248,4.975z M42.605,8.599
		c0.355,0,0.421,0.863,0.489,1.371c0.044,0.266,0.088,0.287,0.199,0.287c0.266,0,0.685-1.017,0.969-1.017
		c0.419,0,1.549,1.172,3.429,1.172c2.674,0,5.196-1.88,5.196-5.195c0-3.206-2.258-5.086-5.374-5.086c-1.482,0-2.567,0.73-3.142,0.73
		C44.022,0.884,43.492,0,43.225,0c-0.11,0-0.221,0.22-0.221,0.596c0,0.244,0,1.017-0.266,1.017c-0.532,0-2.587-1.525-2.587-0.973
		c0,0.509,1.369,2.057,1.369,2.455c0,0.398-1.348,0.774-1.348,1.039c0,0.486,1.437,0.575,1.437,1.194
		c0,0.618-1.504,1.105-1.504,1.57c0,0.376,1.504,0.111,1.504,0.575s-1.105,2.012-1.105,2.453c0,0.111,0.022,0.111,0.109,0.111
		C41.034,10.037,42.295,8.599,42.605,8.599"/>
	<path style="fill:#A7A8AD;" d="M32.589,47.427c0,0.199-0.067,0.421-0.244,0.641c-0.242-0.442-0.928-0.663-1.238-0.663
		c-2.277,0-1.415,3.295-3.847,3.295c-1.017,0-1.106-0.133-1.481-0.133c-0.156,0-0.244,0.067-0.244,0.199
		c0,0.576,0.818,1.99,3.096,1.99c2.277,0,4.467-1.392,4.467-3.119c0-0.287-0.066-0.595-0.199-0.905
		c0.088-0.133,0.311-0.222,0.509-0.222c0.353,0,0.553,0.4,0.884,0.4c0.355,0,0.62-0.266,0.62-0.62c0-0.289-0.154-0.487-0.419-0.621
		c0.177-0.132,0.309-0.353,0.309-0.596c0-0.377-0.266-0.729-0.709-0.729c-0.199,0-0.331,0.067-0.485,0.219
		c-0.044-0.396-0.265-0.771-0.686-0.771c-0.332,0-0.576,0.243-0.576,0.62C32.345,46.762,32.589,47.051,32.589,47.427"/>
	<path style="fill:#A7A8AD;" d="M20.472,43.315c1.769,0.44,2.653,1.391,2.83,2.519c0.177,1.083,0.398,1.969,0.818,2.41
		c0.553,0.62,1.636,1.17,2.588,1.17c0.796,0,1.436-0.262,1.436-0.993c0-0.797-1.083-2.587-2.675-2.587
		c-0.154,0-0.354,0.023-0.575,0.023c-0.199,0-0.487-0.044-0.663-0.199c-0.353-0.311-0.464-1.969-1.127-2.963
		c-0.729-1.106-1.525-1.416-2.608-1.416c-0.773,0-1.636,0.419-1.636,1.039C18.858,42.696,19.057,42.96,20.472,43.315z
		 M26.642,48.267c-0.665,0-1.659-0.709-1.659-1.107c0-0.332,0.31-0.509,0.552-0.509c0.554,0,1.548,0.687,1.548,1.262
		C27.082,48.067,26.972,48.267,26.642,48.267"/>
	<path style="fill:#A7A8AD;" d="M24.607,31.043c0-1.415,3.362-2.167,3.362-3.914c0-0.288-0.111-0.795-0.31-1.171
		c1.171,0.641,2.033,1.725,2.033,2.609c0,1.526-1.592,2.234-1.592,3.185c0,1.105,1.702,1.282,1.702,2.653
		c0,1.127-1.614,2.432-1.614,3.891c0,1.127,0.797,2.055,2.012,2.21c-0.398,0.088-0.751,0.155-1.127,0.155
		c-2.234,0-4.533-1.834-4.533-4.024c0-1.083,0.464-2.032,1.171-2.718c0.62,0.53,1.239,0.884,1.637,0.884
		c0.353,0,0.509-0.176,0.509-0.441C27.858,33.541,24.607,32.79,24.607,31.043z M31.66,42.208c-0.758,0.347-1.061,0.287-1.061,1.062
		c0,0.287-0.067,0.661-0.067,0.861c0,0.265,0.044,0.421,0.353,0.421c0.797,0,2.057-1.348,2.057-2.499
		c0-0.311-0.177-0.441-0.376-0.441C32.39,41.612,32.192,41.965,31.66,42.208z M31.572,40.616c0-0.995-2.057-1.017-2.057-2.521
		c0-0.376,0.243-1.017,0.73-1.703c0.2,1.15,0.663,1.748,1.659,2.124c1.967,0.729,2.233,1.834,2.233,3.007
		c0,1.991-1.393,4.466-4.975,4.466c-2.875,0-4.931-2.566-4.931-4.732c0-0.597,0.154-1.26,0.531-1.26
		c0.332,0,0.442,0.264,0.707,0.529c0.996,0.996,2.079,1.261,3.649,1.261C30.533,41.788,31.572,41.213,31.572,40.616"/>
	<path style="fill:#A7A8AD;" d="M15.914,41.095c0.054,0.462-0.276,0.878-0.737,0.932c-0.462,0.054-0.88-0.277-0.933-0.738
		c-0.054-0.462,0.276-0.881,0.738-0.935C15.443,40.301,15.86,40.633,15.914,41.095z M11.782,41.965
		c0.094,0.755,0.798,1.327,1.593,1.239c0.287-0.032,0.553-0.11,0.731-0.221c0.177,0.707,0.77,1.162,1.573,1.057
		c0.814-0.106,1.368-0.748,1.28-1.566c-0.023-0.22-0.067-0.355-0.133-0.509c0,0,0.107-0.011,0.189-0.026
		c0.798-0.151,1.337-0.792,1.27-1.566c-0.088-0.796-0.802-1.387-1.545-1.295c-0.288,0.035-0.555,0.145-0.732,0.3
		c-0.2-0.663-0.823-1.238-1.674-1.098c-0.769,0.128-1.277,0.78-1.201,1.607c0.012,0.134,0.044,0.287,0.111,0.441
		c0,0-0.131,0.019-0.22,0.033C12.377,40.457,11.677,41.106,11.782,41.965"/>
</g>
</svg>
