<?xml version="1.0" standalone="no"?>
<!DOCTYPE svg PUBLIC "-//W3C//DTD SVG 20010904//EN"
 "http://www.w3.org/TR/2001/REC-SVG-20010904/DTD/svg10.dtd">
<svg version="1.0" xmlns="http://www.w3.org/2000/svg"
 width="1024.000000pt" height="1024.000000pt" viewBox="0 0 1024.000000 1024.000000"
 preserveAspectRatio="xMidYMid meet">
<metadata>
Created by potrace 1.11, written by Peter Selinger 2001-2013
</metadata>
<g transform="translate(0.000000,1024.000000) scale(0.100000,-0.100000)"
fill="#000000" stroke="none">
<path d="M6230 10195 c-150 -17 -220 -32 -336 -70 -329 -108 -597 -324 -816
-660 -129 -196 -286 -548 -403 -900 -58 -175 -151 -502 -170 -595 -2 -8 -8
-35 -15 -60 -7 -25 -14 -53 -16 -63 -2 -10 -6 -27 -9 -37 -3 -10 -8 -29 -10
-42 -7 -36 -46 -209 -56 -248 l-8 -35 -208 0 -207 0 -116 -120 c-64 -66 -176
-181 -248 -255 l-131 -135 410 -3 c317 -2 409 -5 409 -15 0 -6 -4 -28 -9 -47
-5 -19 -12 -53 -15 -75 -5 -36 -15 -93 -31 -180 -5 -25 -20 -108 -50 -275 -6
-37 -44 -251 -50 -285 -2 -11 -6 -31 -9 -45 -3 -14 -7 -38 -10 -55 -3 -24 -44
-254 -71 -405 -3 -14 -17 -90 -31 -170 -14 -80 -37 -206 -50 -280 -14 -74 -27
-146 -29 -160 -2 -14 -6 -40 -9 -57 -3 -18 -8 -48 -11 -65 -3 -18 -8 -40 -10
-48 -2 -8 -6 -31 -9 -50 -3 -19 -8 -46 -11 -60 -3 -14 -25 -140 -50 -280 -56
-319 -54 -304 -66 -370 -6 -30 -13 -68 -15 -85 -6 -35 -70 -394 -119 -670 -19
-104 -37 -203 -40 -220 -2 -16 -7 -41 -10 -55 -10 -51 -16 -86 -19 -110 -2
-14 -8 -52 -14 -85 -6 -33 -14 -73 -17 -90 -2 -16 -7 -41 -10 -55 -2 -13 -7
-42 -11 -64 -3 -22 -7 -43 -9 -46 -2 -3 -6 -30 -10 -60 -4 -30 -9 -58 -11 -61
-1 -3 -8 -34 -13 -70 -6 -35 -13 -75 -16 -89 -4 -21 -25 -137 -40 -230 -3 -14
-9 -50 -15 -80 -6 -30 -13 -71 -16 -90 -2 -19 -9 -55 -14 -80 -5 -25 -12 -56
-14 -70 -2 -14 -9 -52 -15 -85 -6 -33 -13 -76 -16 -95 -3 -19 -12 -71 -21
-115 -8 -44 -17 -96 -20 -115 -75 -496 -224 -784 -472 -913 -67 -34 -207 -75
-219 -63 -4 3 -1 43 6 89 16 104 19 121 26 182 4 28 8 61 10 75 4 21 21 158
41 315 14 111 15 105 -14 111 -15 3 -34 8 -42 11 -8 3 -31 9 -50 14 -19 4 -68
17 -108 28 l-74 19 -53 -111 c-132 -278 -217 -505 -249 -669 -2 -12 -14 -69
-25 -126 -12 -57 -21 -107 -21 -111 0 -20 233 -110 321 -125 19 -3 45 -8 59
-11 70 -15 200 -2 425 45 126 26 194 49 320 110 253 122 543 356 698 563 105
142 202 325 272 517 14 41 33 92 41 113 14 37 93 334 100 372 1 11 14 76 28
145 14 69 28 141 31 160 3 19 8 42 10 50 2 8 6 31 9 50 4 29 35 205 61 350 44
248 96 541 100 565 3 17 10 53 15 80 5 28 12 66 16 85 11 68 23 135 27 155 4
18 11 59 23 135 3 14 9 48 14 75 5 28 12 64 15 80 2 17 9 55 15 85 6 30 13 71
16 90 3 19 9 58 15 85 16 83 17 91 23 131 4 22 11 62 16 89 6 28 12 64 15 80
2 17 11 71 20 120 9 50 17 99 19 110 2 11 11 58 20 105 8 47 18 101 21 120 13
71 24 136 29 160 3 14 9 52 15 85 14 78 20 114 26 145 10 58 48 267 51 285 2
11 5 31 8 45 3 14 7 41 10 60 7 43 15 87 21 120 7 34 12 62 40 220 13 74 33
189 45 255 12 66 24 134 26 150 3 17 7 41 10 55 3 14 7 34 9 45 2 11 13 72 24
136 11 64 23 131 26 150 4 19 18 104 33 189 l27 155 705 3 704 2 90 95 c50 51
144 149 210 217 65 68 136 141 157 163 l39 41 -896 -1 c-493 0 -900 2 -904 5
-5 3 0 50 11 105 10 55 35 186 54 290 19 105 37 201 40 215 3 14 8 39 10 55
23 133 81 426 97 495 11 47 21 92 23 100 12 59 59 231 85 310 106 320 220 500
397 627 136 97 260 124 548 118 105 -3 201 -6 215 -9 14 -2 61 -6 106 -10 44
-4 96 -8 115 -10 19 -3 61 -7 94 -11 100 -11 171 -21 290 -41 42 -7 144 -33
183 -47 30 -10 32 -14 28 -47 -3 -19 -8 -60 -11 -90 -3 -30 -8 -71 -10 -90 -3
-19 -7 -60 -10 -90 -3 -30 -7 -71 -10 -90 -3 -19 -7 -57 -10 -85 -3 -27 -8
-69 -11 -91 -5 -42 0 -52 33 -59 10 -2 45 -11 78 -20 89 -25 169 -44 181 -45
6 0 26 33 44 73 19 39 56 119 83 177 68 146 96 213 123 300 26 78 69 243 78
295 3 17 9 55 14 85 6 30 8 58 6 61 -3 5 -79 24 -79 20 0 0 -18 4 -40 10 -68
16 -418 90 -455 95 -19 3 -42 7 -50 9 -8 3 -33 7 -55 10 -22 4 -92 15 -155 25
-63 10 -137 22 -165 25 -27 4 -68 9 -90 12 -50 7 -62 8 -160 17 -44 4 -98 9
-120 12 -90 11 -495 11 -595 -1z"/>
</g>
</svg>
