<?xml version="1.0" standalone="no"?>
<!DOCTYPE svg PUBLIC "-//W3C//DTD SVG 20010904//EN"
 "http://www.w3.org/TR/2001/REC-SVG-20010904/DTD/svg10.dtd">
<svg version="1.0" xmlns="http://www.w3.org/2000/svg"
 width="320.000000pt" height="320.000000pt" viewBox="0 0 320.000000 320.000000"
 preserveAspectRatio="xMidYMid meet">
<metadata>
Created by potrace 1.11, written by Peter Selinger 2001-2013
</metadata>
<g transform="translate(0.000000,320.000000) scale(0.100000,-0.100000)"
fill="#000000" stroke="none">
<path d="M109 3172 c-43 -22 -59 -38 -81 -81 l-28 -53 0 -1438 0 -1438 28 -53
c22 -43 38 -59 81 -81 l53 -28 1438 0 1438 0 53 28 c43 22 59 38 81 81 l28 53
0 1438 0 1438 -28 53 c-22 43 -38 59 -81 81 l-53 28 -1438 0 -1438 0 -53 -28z
m2221 -315 c41 -8 101 -20 133 -27 l59 -12 -7 -36 c-8 -45 -60 -181 -77 -205
-11 -14 -19 -15 -50 -6 -42 11 -42 10 -29 112 l7 57 -35 10 c-60 15 -250 31
-296 24 -86 -12 -141 -68 -180 -181 -21 -60 -85 -354 -85 -390 0 -10 45 -13
230 -13 127 0 230 -3 230 -7 0 -4 -28 -36 -62 -70 l-62 -63 -183 0 -182 0 -10
-52 c-6 -29 -60 -325 -121 -658 -122 -673 -127 -695 -176 -797 -82 -173 -310
-297 -464 -253 -64 18 -65 20 -47 92 9 36 30 94 46 131 l29 65 42 -10 c41 -11
42 -12 37 -47 -3 -20 -9 -64 -13 -97 l-6 -62 27 6 c39 7 99 69 119 122 9 25
79 385 155 800 l138 755 -104 3 c-57 1 -103 6 -103 10 0 4 27 34 60 67 57 56
64 60 117 65 l56 5 34 129 c89 338 203 498 390 546 51 13 289 4 383 -13z"/>
</g>
</svg>
