<?xml version="1.0" encoding="UTF-8"?>
<svg width="39px" height="65px" viewBox="0 0 39 65" version="1.1" xmlns="http://www.w3.org/2000/svg" xmlns:xlink="http://www.w3.org/1999/xlink">
    <!-- Generator: Sketch 47 (45396) - http://www.bohemiancoding.com/sketch -->
    <title>Fill 1</title>
    <desc>Created with Sketch.</desc>
    <defs></defs>
    <g id="Page-1" stroke="none" stroke-width="1" fill="none" fill-rule="evenodd">
        <g id="Artboard" transform="translate(-54.000000, -59.000000)" fill="#FFFFFF">
            <path d="M90.7921327,66.9436544 C91.0865815,66.3569147 91.4648734,65.5394571 91.9329972,64.4863091 C92.3971285,63.4381335 92.7544596,62.1304002 93,60.5650981 C86.1308576,58.9530558 81.3228572,58.5860948 78.5769969,59.4652099 C75.8291403,60.2965901 73.6951347,62.350179 72.1749802,65.6249819 C70.8983697,68.2623269 69.7954342,71.8553615 68.8631792,76.4011022 L66.2141376,76.4011022 L63.0510583,79.698778 L68.2752796,79.698778 L61.7265375,116.649454 C61.1376398,119.974975 59.7133059,121.758067 57.4575282,122.002708 L57.6052517,121.050996 L58.1192895,117.091001 L56.2078673,116.577852 C55.9134185,117.164592 55.5331303,118.007906 55.0670028,119.106799 C54.598879,120.208677 54.2435441,121.538288 54,123.104585 C54.5888977,123.443701 55.2017506,123.689336 55.8385586,123.836518 C56.4763648,123.981711 56.917539,124.03044 57.1640775,123.981711 C57.4575282,123.981711 58.1801756,123.859391 59.3340158,123.616739 C60.4868579,123.372098 61.7265375,122.760497 63.0510583,121.783923 C63.6389578,121.344366 64.2019041,120.855085 64.7428915,120.317074 C65.2818826,119.777075 65.7739616,119.132656 66.2141376,118.374867 C66.6553119,117.617077 67.0615515,116.712106 67.4298621,115.662936 C67.7971745,114.610782 68.126558,113.303049 68.422005,111.739736 L74.0883986,79.698778 L82.9927316,79.698778 L86.1558109,76.4011022 L74.6762982,76.4011022 L75.6325084,71.1950308 C75.9269572,69.5342592 76.2473575,68.1052 76.5897167,66.9068589 C76.933074,65.7105066 77.3253397,64.7428834 77.7675121,64.0109505 C78.1597779,63.2780232 78.7716326,62.6435488 79.6070688,62.1055384 C80.4405088,61.5675279 82.0355233,61.4213402 84.3911141,61.6639919 C85.5679113,61.7634393 86.5600543,61.8738259 87.3695391,61.9941573 C88.180022,62.1164776 88.8298057,62.2765879 89.3208865,62.4705103 L88.8787142,66.4305058 L90.7921327,66.9436544 Z" id="Fill-1"></path>
        </g>
    </g>
</svg>